<svg xmlns="http://www.w3.org/2000/svg" width="69.652" height="66.146" viewBox="0 0 69.652 66.146"><g transform="translate(-95 -48)"><rect width="8.564" height="34.97" transform="translate(95 61.131)" fill="#030303"/><rect width="8.564" height="50.401" transform="translate(107.218 61.131)" fill="#030303"/><rect width="8.564" height="55.511" transform="translate(119.435 58.635)" fill="#030303"/><rect width="8.564" height="55.511" transform="translate(131.653 58.635)" fill="#030303"/><rect width="8.564" height="50.401" transform="translate(143.871 61.131)" fill="#030303"/><rect width="8.564" height="34.97" transform="translate(156.088 61.131)" fill="#030303"/><g transform="translate(95.38 48)"><path d="M-880.305-1023.9v1.655h3.188v1.888h-3.188v3.151h-1.962v-8.583h5.211v1.888Z" transform="translate(882.267 1025.964)" fill="#030303"/><path d="M-869-1021.731a4.425,4.425,0,0,1,4.463-4.463,4.425,4.425,0,0,1,4.463,4.463,4.424,4.424,0,0,1-4.463,4.463A4.425,4.425,0,0,1-869-1021.731Zm6.964,0a2.441,2.441,0,0,0-2.5-2.55,2.441,2.441,0,0,0-2.5,2.55,2.441,2.441,0,0,0,2.5,2.55A2.441,2.441,0,0,0-862.037-1021.731Z" transform="translate(874.666 1026.194)" fill="#030303"/><path d="M-846.2-1019.98v-5.812h1.961v5.64c0,.65.307,1.2,1.349,1.2s1.349-.552,1.349-1.2v-5.64h1.962v5.812c0,1.839-1.423,2.943-3.311,2.943S-846.2-1018.141-846.2-1019.98Z" transform="translate(861.598 1025.964)" fill="#030303"/><path d="M-824.822-1020.029h-.932v2.82h-1.962v-8.583h3.433a2.936,2.936,0,0,1,2.943,2.943,2.828,2.828,0,0,1-1.582,2.489l1.827,3.151H-823.2Zm-.932-1.717h1.471a1.039,1.039,0,0,0,.981-1.1,1.04,1.04,0,0,0-.981-1.1h-1.471Z" transform="translate(851.007 1025.964)" fill="#030303"/><path d="M-788.846-1023.9v1.655h3.188v1.888h-3.188v3.151h-1.962v-8.583h5.211v1.888Z" transform="translate(829.857 1025.964)" fill="#030303"/><path d="M-777.544-1021.731a4.425,4.425,0,0,1,4.463-4.463,4.425,4.425,0,0,1,4.463,4.463,4.424,4.424,0,0,1-4.463,4.463A4.425,4.425,0,0,1-777.544-1021.731Zm6.964,0a2.441,2.441,0,0,0-2.5-2.55,2.441,2.441,0,0,0-2.5,2.55,2.441,2.441,0,0,0,2.5,2.55A2.441,2.441,0,0,0-770.58-1021.731Z" transform="translate(822.256 1026.194)" fill="#030303"/><path d="M-754.741-1019.98v-5.812h1.961v5.64c0,.65.307,1.2,1.349,1.2s1.349-.552,1.349-1.2v-5.64h1.962v5.812c0,1.839-1.423,2.943-3.311,2.943S-754.741-1018.141-754.741-1019.98Z" transform="translate(809.189 1025.964)" fill="#030303"/><path d="M-733.364-1020.029h-.932v2.82h-1.962v-8.583h3.433a2.936,2.936,0,0,1,2.943,2.943,2.827,2.827,0,0,1-1.582,2.489l1.827,3.151h-2.109Zm-.932-1.717h1.471a1.039,1.039,0,0,0,.981-1.1,1.04,1.04,0,0,0-.981-1.1H-734.3Z" transform="translate(798.598 1025.964)" fill="#030303"/></g><g transform="translate(126.511 49.51)"><path d="M-809.354-1019.421a3.214,3.214,0,0,1,3.25-3.237,3.213,3.213,0,0,1,3.249,3.237,3.213,3.213,0,0,1-3.249,3.237A3.214,3.214,0,0,1-809.354-1019.421Zm4.66,0a1.376,1.376,0,0,0-1.41-1.447,1.375,1.375,0,0,0-1.41,1.447,1.375,1.375,0,0,0,1.41,1.447A1.375,1.375,0,0,0-804.694-1019.421Z" transform="translate(809.354 1022.658)" fill="#030303"/></g></g></svg>