<svg xmlns="http://www.w3.org/2000/svg" width="184.047" height="130.933" viewBox="0 0 184.047 130.933"><rect width="184.047" height="130.933" fill="none"/><path d="M111.616,62.785l-.581,1.744c-.945,2.834-1.889,5.595-2.834,8.429-1.526,4.578-3.052,9.228-4.578,13.805l-4.941,14.823c-.436,1.381-.945,2.761-1.381,4.142l-.436,1.308a.391.391,0,0,0,.727.291h0c.145-.363.218-.727.363-1.017.581-1.744,1.163-3.415,1.744-5.159,1.889-5.595,3.706-11.19,5.595-16.784S109,73.248,110.817,67.726l1.6-4.723c.073-.291.073-.291.363-.218l2.834.581,3.124.654c.872.145,1.744.363,2.543.509a.567.567,0,0,1,.291.291c.291.872.581,1.816.8,2.761.436,1.526.872,3.124,1.381,4.65l.872,3.052,1.235,4.142.872,3.052c.363,1.163.654,2.252,1.017,3.415.436,1.453.872,2.979,1.308,4.432s.872,2.906,1.308,4.287c.436,1.6.945,3.2,1.381,4.8s.872,3.052,1.381,4.5c.145.436-.073.581-.581.654-.581.073-1.235.145-1.816.218l-1.744.145c-.509.073-1.09.145-1.6.218l-1.163.145a.655.655,0,0,0-.363.073,2.7,2.7,0,0,1-1.308-.145c-.8-.145-1.6-.291-2.47-.509-.291-.073-.436-.145-.509-.509-.291-1.09-.581-2.252-.872-3.342a20.808,20.808,0,0,0-.509-2.034c0-.145,0-.145.145-.145l1.163-.073,1.6-.073c.145,0,.218.073.291.218.436,1.6.872,3.124,1.381,4.65a1.71,1.71,0,0,1,.145.581.324.324,0,0,0,.436.218.375.375,0,0,0,.218-.509c-.436-1.526-.872-3.124-1.381-4.65L123.9,98.1c-.073-.291-.218-.363-.509-.291s-.581,0-.872.073a8.793,8.793,0,0,0-1.381.073l-2.688.145c-.509,0-1.017.073-1.526.073l-2.834.145-1.526.073-2.834.145a.655.655,0,0,0-.363.073l-.581,1.962c-.218.872-.509,1.744-.727,2.616-.363,1.308-.727,2.543-1.09,3.851a.377.377,0,0,1-.145.291.491.491,0,0,1-.436.291c-.509.073-1.09.145-1.6.218l-1.235.145-1.6.218c-.509.073-1.09.145-1.6.218s-1.235.145-1.889.291c-.509.073-1.09.145-1.6.218a.922.922,0,0,0-.436.073.772.772,0,0,1-.581-.073l-3.778-1.744a1.228,1.228,0,0,0-.363-.145.375.375,0,0,1-.218-.509v-.073l1.235-3.415c.291-.872.654-1.744.945-2.688.581-1.526,1.163-3.124,1.671-4.65.654-1.816,1.308-3.706,2.034-5.522s1.235-3.488,1.889-5.3l1.381-3.851,1.962-5.522,1.6-4.36,1.381-3.924a12.114,12.114,0,0,1,.581-1.453c.073-.218.291-.291.509-.436l1.671-.8,2.979-1.453Zm4.8,27.683h5.014c.436,0,.581-.218.436-.581a17.53,17.53,0,0,0-.581-1.816c-.363-1.163-.654-2.325-1.017-3.488-.291-1.017-.581-1.962-.872-2.979l-1.235-4.142-.727-2.4a16.348,16.348,0,0,0-.581-1.744.567.567,0,0,0-.291-.291.265.265,0,0,0-.363.145c-.073.073-.073.145-.145.291-.218.654-.436,1.381-.654,2.034-.363,1.235-.8,2.4-1.163,3.633s-.8,2.47-1.163,3.706-.8,2.47-1.163,3.778c-.363,1.09-.727,2.252-1.09,3.342-.145.436,0,.581.436.581Z" transform="translate(-25.006 -17.155)" fill="#030303"/><path d="M155.731,54V87.714h-6.9V65.844H140.4V60.685h.218a19.038,19.038,0,0,0,2.034-.073,11.237,11.237,0,0,0,3.851-1.09,7.929,7.929,0,0,0,2.107-1.671,6.472,6.472,0,0,0,1.308-2.4c.145-.436.218-.872.363-1.381Z" transform="translate(-38.386 -14.764)" fill="#030303"/><path d="M130.013,94.241h-2.906a.156.156,0,0,1-.145-.145c-.436-1.526-.8-3.124-1.235-4.65-.509-1.889-1.017-3.706-1.526-5.595a2.012,2.012,0,0,1,.073-.654c.363-1.163.727-2.252,1.09-3.342l.218-.654C127.106,84.141,128.56,89.227,130.013,94.241Z" transform="translate(-33.957 -21.654)" fill="#030303"/></svg>