<svg xmlns="http://www.w3.org/2000/svg" width="184.047" height="130.933" viewBox="0 0 184.047 130.933"><rect width="184.047" height="130.933" fill="none"/><path d="M49.1,105.5H159.252v1.308H49.1Z" transform="translate(-13.424 -28.844)" fill="CurrentColor"/><path d="M200.5,105.5h11.48v1.308H200.5Z" transform="translate(-54.817 -28.844)" fill="CurrentColor"/><path d="M37.6,105.5H49.08v1.308H37.6Z" transform="translate(-10.28 -28.844)" fill="CurrentColor"/><path d="M137.353,78.213c3.27,0,4.578,2.252,4.578,4.941h-9.082c.145-2.761,1.526-5.014,4.5-4.941m-4.5,9.591h16.421V86.278c0-7.048-3.2-13.3-11.989-13.3-7.339,0-12.715,4.578-12.715,12.352a11.759,11.759,0,0,0,3.778,9.01h18.674V90.493a15.828,15.828,0,0,1-7.266,1.816c-3.924,0-6.467-1.308-6.9-4.5m-44.9,4.5c-1.889,0-3.342-.945-3.342-2.616,0-2.252,2.18-3.124,4.941-3.124,1.235,0,2.4.073,3.488.145-.073,2.761-1.962,5.595-5.086,5.595M79.879,74.653l.145,5.522a15.215,15.215,0,0,1,7.557-1.744c2.979,0,5.377.872,5.449,4.069a22.35,22.35,0,0,0-3.851-.291c-4.36,0-12.279.872-12.279,8.065a6.962,6.962,0,0,0,1.163,4H96.954V74.944A13.845,13.845,0,0,0,89.4,72.982a25.054,25.054,0,0,0-9.518,1.671M97.826,94.344h8.211V63.1H97.9Z" transform="translate(-21.025 -17.252)" fill="CurrentColor" fill-rule="evenodd"/><path d="M116.672,91.51c-3.124,0-4.941-2.616-4.941-6.394,0-3.124,1.744-5.885,4.941-5.885,2.979,0,5.014,2.616,5.014,6.176,0,3.488-2.325,6.1-5.014,6.1m7.048-6.1c0-5.3,2.252-9.3,6.176-11.48V63.1h-8.211V76.542h-.073c-2.107-2.761-4.868-3.56-8.138-3.56a9.394,9.394,0,0,0-6.394,2.47V94.344h20.054a12.032,12.032,0,0,1-3.415-8.937M89.5,103.426a1.341,1.341,0,0,1,.872.363,1.3,1.3,0,0,1,.291,1.017v.436a1.668,1.668,0,0,1-.291,1.017,1.187,1.187,0,0,1-1.744,0,1.3,1.3,0,0,1-.291-1.017v-.436a1.668,1.668,0,0,1,.291-1.017A1.2,1.2,0,0,1,89.5,103.426Zm25.5,0a1.341,1.341,0,0,1,.872.363,1.3,1.3,0,0,1,.291,1.017v.436a1.668,1.668,0,0,1-.291,1.017,1.187,1.187,0,0,1-1.744,0,1.3,1.3,0,0,1-.291-1.017v-.436a1.668,1.668,0,0,1,.291-1.017A1.2,1.2,0,0,1,115,103.426Zm19.763,0a1.341,1.341,0,0,1,.872.363,1.3,1.3,0,0,1,.291,1.017v.436a1.668,1.668,0,0,1-.291,1.017,1.187,1.187,0,0,1-1.744,0,1.3,1.3,0,0,1-.291-1.017v-.436a1.668,1.668,0,0,1,.291-1.017,1.2,1.2,0,0,1,.872-.363Zm-28.337,0a1.307,1.307,0,0,1,1.09.509l-.363.291a.567.567,0,0,0-.291-.291.655.655,0,0,0-.363-.073c-.145,0-.291,0-.363.145a.551.551,0,0,0-.145.291.378.378,0,0,0,.145.291c.145.073.363.145.509.218a2.176,2.176,0,0,1,.727.291.825.825,0,0,1,.218.581.888.888,0,0,1-.291.654,1.093,1.093,0,0,1-.8.291,1.446,1.446,0,0,1-1.163-.509l.436-.291a.894.894,0,0,0,.727.363c.363,0,.581-.145.581-.436a.377.377,0,0,0-.145-.291c-.145-.073-.363-.145-.509-.218-.581-.145-.945-.436-.945-.945a.87.87,0,0,1,.945-.872Zm20.345.073v1.816a2.122,2.122,0,0,0,.145.654.621.621,0,0,0,.945,0h0a1.08,1.08,0,0,0,.145-.654V103.5h.509v1.816a1.34,1.34,0,0,1-.291.945,1.326,1.326,0,0,1-1.744,0,1.6,1.6,0,0,1-.291-.945V103.5Zm-33.714-.073a1.227,1.227,0,0,1,.727.218,1.009,1.009,0,0,1,.363.727h-.436a.641.641,0,0,0-.654-.581.66.66,0,0,0-.509.218,1.31,1.31,0,0,0-.145.727v.436c0,.654.218.945.654.945a.534.534,0,0,0,.436-.145.628.628,0,0,0,.218-.436h.509a.993.993,0,0,1-1.017,1.017h-.145a1.341,1.341,0,0,1-.872-.363,1.668,1.668,0,0,1-.291-1.017v-.436a1.668,1.668,0,0,1,.291-1.017,1.558,1.558,0,0,1,.872-.291Zm49.554.073v.436h-1.381v.8h1.235v.436h-1.235v.945h1.381v.436h-1.889v-3.124Zm-46.066,0a1.935,1.935,0,0,1,.872.218.842.842,0,0,1,.291.727.788.788,0,0,1-.581.8l.654,1.308H97.2l-.581-1.235h-.581v1.235h-.509v-3.124Zm34.586,0a1.935,1.935,0,0,1,.872.218.842.842,0,0,1,.291.727.788.788,0,0,1-.581.8l.654,1.308h-.581l-.581-1.235h-.581v1.235h-.509v-3.124Zm-48.319,0v.436H81.432v.8h1.235v.436H81.432v.945h1.381v.436H80.924v-3.124Zm1.816,0,.872,1.816.945-1.816h.509v3.124h-.509v-2.107l-.727,1.453h-.363l-.727-1.453v2.034h-.509v-3.124Zm40.326,0v.436h-1.381v.8h1.235v.436h-1.235v.945h1.381v.436h-1.889v-3.124Zm-6.394,0a1.935,1.935,0,0,1,.872.218.842.842,0,0,1,.291.727.787.787,0,0,1-.581.8l.654,1.308h-.581l-.581-1.235h-.581v1.235h-.509v-3.124Zm-40.253,0c.8,0,1.163.436,1.163,1.381v.363c0,.872-.363,1.381-1.163,1.381H77.291V103.5Zm34.441,0v.436h-1.381v.872H112.6v.436h-1.235v1.308h-.509v-3.124Zm-8.5,0v.436h-.872v2.616h-.509v-2.616h-.872V103.5Zm-4,0,1.09,3.124h-.581l-.218-.654H99.525l-.218.654h-.581l1.09-3.124Zm38.074,0a1.935,1.935,0,0,1,.872.218,1.105,1.105,0,0,1,0,1.453,1.04,1.04,0,0,1-.8.218h-.509v1.163h-.581v-3.124Zm-3.633.363a.66.66,0,0,0-.509.218.9.9,0,0,0-.145.727v.436a1.31,1.31,0,0,0,.145.727.566.566,0,0,0,.509.218.66.66,0,0,0,.509-.218,1.31,1.31,0,0,0,.145-.727v-.436a1.31,1.31,0,0,0-.145-.727.66.66,0,0,0-.509-.218Zm-19.763,0a.66.66,0,0,0-.509.218.9.9,0,0,0-.145.727v.436a1.31,1.31,0,0,0,.145.727.566.566,0,0,0,.509.218.661.661,0,0,0,.581-.291,1.31,1.31,0,0,0,.145-.727v-.436a2.582,2.582,0,0,0-.145-.727,1.369,1.369,0,0,0-.581-.145Zm-25.5,0a.66.66,0,0,0-.509.218,1.31,1.31,0,0,0-.145.727v.436a1.31,1.31,0,0,0,.145.727.7.7,0,0,0,1.017,0,.9.9,0,0,0,.145-.727v-.436a1.31,1.31,0,0,0-.145-.727.66.66,0,0,0-.509-.218Zm-11.117.073H77.8v2.18h.509a.66.66,0,0,0,.509-.218,1.31,1.31,0,0,0,.145-.727v-.363a1.31,1.31,0,0,0-.145-.727.613.613,0,0,0-.509-.145Zm21.725.291-.436,1.235h.8Zm38.219-.291h-.509v1.09h.509c.436,0,.654-.145.654-.509S138.688,103.935,138.252,103.935Zm-41.779,0h-.509v.945h.509a.692.692,0,0,0,.509-.145.527.527,0,0,0,0-.727,1.077,1.077,0,0,0-.509-.073Zm22.016,0h-.509v.945h.509a.692.692,0,0,0,.509-.145.527.527,0,0,0,0-.727,1.077,1.077,0,0,0-.509-.073Zm12.643,0h-.509v.945h.509a.692.692,0,0,0,.509-.145.527.527,0,0,0,0-.727,1.236,1.236,0,0,0-.509-.073Zm18.31-5.086c.8,0,1.163.436,1.163,1.308v.363c0,.872-.363,1.308-1.163,1.308h-1.017V98.776h1.017ZM136.8,98.7a1.307,1.307,0,0,1,1.09.509l-.363.291a.567.567,0,0,0-.291-.291.79.79,0,0,0-.363-.073c-.145,0-.291,0-.363.145a.363.363,0,0,0,0,.581c.145.073.363.145.509.218a2.176,2.176,0,0,1,.727.291.825.825,0,0,1,.218.581.888.888,0,0,1-.291.654,1.093,1.093,0,0,1-.8.291,1.446,1.446,0,0,1-1.163-.509l.436-.291c.073.073.218.218.291.218a.922.922,0,0,0,.436.073c.363,0,.581-.145.581-.436a.378.378,0,0,0-.145-.291c-.145-.073-.363-.145-.509-.218-.654-.145-.945-.436-.945-.945a.888.888,0,0,1,.291-.654,1.228,1.228,0,0,1,.654-.145Zm-30.808,0a1.341,1.341,0,0,1,.872.363,1.3,1.3,0,0,1,.291,1.017v.436a1.668,1.668,0,0,1-.291,1.017,1.187,1.187,0,0,1-1.744,0,1.3,1.3,0,0,1-.291-1.017v-.436a1.668,1.668,0,0,1,.291-1.017.94.94,0,0,1,.872-.363Zm-8.646,0a1.465,1.465,0,0,1,.8.218,1.009,1.009,0,0,1,.363.727H98a.641.641,0,0,0-.654-.581.66.66,0,0,0-.509.218,1.31,1.31,0,0,0-.145.727v.436c0,.654.218.945.654.945a.534.534,0,0,0,.436-.145A.628.628,0,0,0,98,100.81h.509a1.056,1.056,0,0,1-1.09,1.017h-.073a1.341,1.341,0,0,1-.872-.363,1.668,1.668,0,0,1-.291-1.017v-.363a1.668,1.668,0,0,1,.291-1.017.884.884,0,0,1,.872-.363Zm35.894,0v2.688h1.381v.436H132.73V98.7Zm11.916,0,1.308,2.107V98.7h.509v3.124h-.436L145.3,99.721v2.107h-.509V98.7Zm-60.744,0v2.688h1.381v.436H83.9V98.7Zm29.79,0v2.688h1.381v.436h-1.889V98.7Zm12.5,0a1.935,1.935,0,0,1,.872.218.842.842,0,0,1,.291.727.788.788,0,0,1-.581.8l.654,1.308h-.581l-.581-1.235h-.581v1.235h-.509V98.631Zm-36.4,0,1.09,3.124h-.581l-.218-.654H89.5l-.218.654H88.7l1.09-3.124Zm20.127,0v.436h-1.381v.945h1.235v.436h-1.235v1.308h-.509V98.7Zm20.054,0,1.09,3.124h-.581l-.218-.654h-1.163l-.218.654h-.581L129.9,98.7Zm-6.1,0v.436h-1.381v.8h1.235v.436h-1.235v.945h1.381v.436h-1.889V98.631Zm-7.048,0v3.124h-.509V98.7Zm-24.268,0,1.308,2.107V98.7h.509v3.124h-.436L93.2,99.721v2.107h-.436V98.7Zm8.647,0v.436h-1.381v.8h1.235v.436h-1.235v.945H101.7v.436H99.815V98.631Zm-20.417,0v2.688h1.381v.436H80.778V98.7Zm38.582,0c.727,0,1.09.291,1.09.8a1.033,1.033,0,0,1-.145.436.725.725,0,0,1-.363.291.708.708,0,0,1,.581.727.888.888,0,0,1-.291.654.82.82,0,0,1-.8.218h-1.09V98.7Zm22.525,0,1.09,3.124H142.9l-.218-.654h-1.017l-.218.654h-.509l1.09-3.124Zm-63.941,0,1.09,3.124h-.581l-.218-.654H77.727l-.218.654H77L78.09,98.7Zm9.01,0v3.124h-.509V98.7Zm61.979.581h-.509v2.18h.509a.66.66,0,0,0,.509-.218,1.08,1.08,0,0,0,.145-.654v-.363a.977.977,0,0,0-.145-.654.63.63,0,0,0-.509-.291Zm-43.378-.145a.66.66,0,0,0-.509.218.9.9,0,0,0-.145.727v.436a1.31,1.31,0,0,0,.145.727.566.566,0,0,0,.509.218.66.66,0,0,0,.509-.218,1.31,1.31,0,0,0,.145-.727v-.436a2.581,2.581,0,0,0-.145-.727A.66.66,0,0,0,106.064,99.139Zm13.878,1.308h-.509v.945h.581c.436,0,.581-.145.581-.436a.555.555,0,0,0-.145-.363.613.613,0,0,0-.509-.145ZM90.079,99.5l-.436,1.235h.8Zm-11.771,0-.436,1.235h.8Zm51.952,0-.436,1.235h.8Zm11.916,0-.436,1.235h.8ZM126.7,99.212h-.509v.945h.509a.692.692,0,0,0,.509-.145.527.527,0,0,0,0-.727A1.236,1.236,0,0,0,126.7,99.212Zm-6.83,0h-.436v.8h.509c.363,0,.581-.145.581-.436a.378.378,0,0,0-.145-.291,1.237,1.237,0,0,0-.509-.073Zm40.253,4.069a1.138,1.138,0,0,0,.218-1.163,1.588,1.588,0,0,0-.218-.363l-.073-.073L157.071,98.7a1.079,1.079,0,0,0-1.526,1.526l2.252,2.325-2.325,2.325A1.079,1.079,0,0,0,157,106.405l2.979-2.979.145-.145" transform="translate(-21.052 -17.252)" fill="CurrentColor" fill-rule="evenodd"/><path d="M185.989,101.982a1.588,1.588,0,0,0-.218-.363l-.073-.073-2.979-2.979a1.079,1.079,0,0,0-1.526,1.526h0l2.252,2.325-2.252,2.252a1.079,1.079,0,0,0,1.526,1.526h0l2.979-2.979.073-.073a.983.983,0,0,0,.218-1.163M160.049,62.6a2.236,2.236,0,0,1,1.381.436,1.5,1.5,0,0,1,.509,1.235,1.594,1.594,0,0,1-.509,1.235,2.236,2.236,0,0,1-1.381.436h-.872v1.889h-.872V62.673h1.744Zm4.723,0,1.816,5.159h-.945l-.363-1.09h-1.889l-.363,1.09h-.872l1.816-5.159Zm4.5,0a2.193,2.193,0,0,1,1.381.363,1.446,1.446,0,0,1,.509,1.163,1.283,1.283,0,0,1-.945,1.381l1.09,2.252h-.945l-1.017-2.107h-1.017v2.107h-.872V62.6Zm6.539,0v.727h-1.526v4.432h-.872V63.4h-1.526v-.727Zm1.526,0,1.017,2.034,1.017-2.034h1.017l-1.6,2.979v2.18h-.872v-2.18l-1.6-2.979h1.017Zm-12.933,1.235-.727,2.107h1.381l-.654-2.107Zm-4.432-.436h-.8v1.744h.8c.727,0,1.163-.291,1.163-.872S160.7,63.4,159.977,63.4Zm9.3,0h-.8V65h.8a2.612,2.612,0,0,0,.8-.145.756.756,0,0,0,0-1.163h0a.726.726,0,0,0-.8-.291Zm-14.677.073v3.706a.193.193,0,0,0,.218.218h0a.193.193,0,0,0,.218-.218h0V63.472a.218.218,0,0,0-.436,0h0" transform="translate(-42.268 -17.115)" fill="CurrentColor" fill-rule="evenodd"/></svg>