<svg xmlns="http://www.w3.org/2000/svg" width="184.047" height="130.933" viewBox="0 0 184.047 130.933"><rect width="184.047" height="130.933" fill="none"/><path d="M139.263,99.934a15.915,15.915,0,0,1-9.882-3.488,15.743,15.743,0,0,1-19.763,0,15.743,15.743,0,0,1-19.763,0A15.762,15.762,0,1,1,79.465,68.4h1.017a15.839,15.839,0,0,1,9.373,3.488A15.38,15.38,0,0,1,99.228,68.4h1.017a15.839,15.839,0,0,1,9.373,3.488,15.38,15.38,0,0,1,9.373-3.488h1.09a15.839,15.839,0,0,1,9.373,3.488,15.38,15.38,0,0,1,9.373-3.488h1.017A15.806,15.806,0,0,1,155.1,84.676a16.034,16.034,0,0,1-4.214,10.245,15.817,15.817,0,0,1-10.972,5.014Zm-7.557-5.813A12.477,12.477,0,1,0,139.7,71.742h-.872a12.153,12.153,0,0,0-7.121,2.543,15.656,15.656,0,0,1,0,19.836Zm-19.763,0a12.534,12.534,0,0,0,15.041,0,15.758,15.758,0,0,1,0-19.909,12.477,12.477,0,0,0-7.121-2.543h-.872a12.153,12.153,0,0,0-7.121,2.543,15.665,15.665,0,0,1,.073,19.909ZM79.465,71.67A12.47,12.47,0,1,0,87.53,94.049a15.758,15.758,0,0,1,0-19.909A12.477,12.477,0,0,0,80.409,71.6h-.945ZM92.18,94.122a12.534,12.534,0,0,0,15.041,0,15.758,15.758,0,0,1,0-19.909A12.477,12.477,0,0,0,100.1,71.67h-.872a12.153,12.153,0,0,0-7.121,2.543,15.665,15.665,0,0,1,.073,19.909Zm17.438-17.584a12.535,12.535,0,0,0,0,15.186A12.535,12.535,0,0,0,109.618,76.538Zm19.763,0a12.535,12.535,0,0,0,0,15.186A12.328,12.328,0,0,0,129.382,76.538Zm-39.6,0a12.535,12.535,0,0,0,0,15.186A12.328,12.328,0,0,0,89.782,76.538Z" transform="translate(-17.558 -18.701)" fill="#030303"/></svg>