<svg xmlns="http://www.w3.org/2000/svg" width="184.047" height="130.933" viewBox="0 0 184.047 130.933"><rect width="184.047" height="130.933" fill="none"/><path d="M127.2,80.2a4.475,4.475,0,0,1-8.792,0H112.6a10.343,10.343,0,0,0,20.635,0Z" transform="translate(-30.785 -21.927)" fill="#030303"/><path d="M127.2,80.2a4.475,4.475,0,0,1-8.792,0H112.6a10.343,10.343,0,0,0,20.635,0Z" transform="translate(-30.785 -21.927)" fill="#030303"/><path d="M125.479,80.958a2.979,2.979,0,1,0-2.979-2.979h0a2.992,2.992,0,0,0,2.979,2.979" transform="translate(-33.492 -20.505)" fill="#030303"/><path d="M125.479,80.958a2.979,2.979,0,1,0-2.979-2.979h0A2.992,2.992,0,0,0,125.479,80.958Z" transform="translate(-33.492 -20.505)" fill="#030303"/><path d="M131.818,80.2a11.915,11.915,0,0,1-23.76,0H102.1a17.9,17.9,0,0,0,35.749,0Z" transform="translate(-27.914 -21.927)" fill="#030303"/><path d="M131.818,80.2a11.915,11.915,0,0,1-23.76,0H102.1a17.9,17.9,0,0,0,35.749,0Z" transform="translate(-27.914 -21.927)" fill="#030303"/><path d="M107.077,110.717v3.415h20.054v-3.415H122.7a2.6,2.6,0,0,1-2.616-2.616v-3.488A25.431,25.431,0,0,0,142.534,80.2H136.5a19.423,19.423,0,0,1-38.8,0H91.6a25.431,25.431,0,0,0,22.452,24.414V108.1a2.6,2.6,0,0,1-2.616,2.616h-4.36Z" transform="translate(-25.044 -21.927)" fill="#030303"/><path d="M107.077,110.717v3.415h20.054v-3.415H122.7a2.6,2.6,0,0,1-2.616-2.616v-3.488A25.431,25.431,0,0,0,142.534,80.2H136.5a19.423,19.423,0,0,1-38.8,0H91.6a25.431,25.431,0,0,0,22.452,24.414V108.1a2.6,2.6,0,0,1-2.616,2.616h-4.36Z" transform="translate(-25.044 -21.927)" fill="#030303"/><path d="M91.6,74.674h5.958V66.1L91.6,68.788Z" transform="translate(-25.044 -18.072)" fill="#030303"/><path d="M91.6,74.674h5.958V66.1L91.6,68.788Z" transform="translate(-25.044 -18.072)" fill="#030303"/><path d="M102.1,73.389h5.885V61.4L102.1,64.088Z" transform="translate(-27.914 -16.787)" fill="#030303"/><path d="M102.1,73.389h5.885V61.4L102.1,64.088Z" transform="translate(-27.914 -16.787)" fill="#030303"/><path d="M112.3,72.131h5.958V56.8L112.3,59.416Z" transform="translate(-30.703 -15.529)" fill="#030303"/><path d="M112.3,72.131h5.958V56.8L112.3,59.416Z" transform="translate(-30.703 -15.529)" fill="#030303"/><path d="M122.6,55.308V67.733h5.885V55.308L125.506,54Z" transform="translate(-33.519 -14.764)" fill="#030303"/><path d="M122.6,55.308V67.733h5.885V55.308L125.506,54Z" transform="translate(-33.519 -14.764)" fill="#030303"/><path d="M132.9,72.131h5.885V59.488L132.9,56.8Z" transform="translate(-36.335 -15.529)" fill="#030303"/><path d="M132.9,72.131h5.885V59.488L132.9,56.8Z" transform="translate(-36.335 -15.529)" fill="#030303"/><path d="M143.1,73.389h5.885v-9.3L143.1,61.4Z" transform="translate(-39.124 -16.787)" fill="#030303"/><path d="M143.1,73.389h5.885v-9.3L143.1,61.4Z" transform="translate(-39.124 -16.787)" fill="#030303"/><path d="M153.5,66.1v8.574h5.958V68.716Z" transform="translate(-41.967 -18.072)" fill="#030303"/><path d="M153.5,66.1v8.574h5.958V68.716Z" transform="translate(-41.967 -18.072)" fill="#030303"/></svg>