<svg xmlns="http://www.w3.org/2000/svg" width="184.047" height="130.933" viewBox="0 0 184.047 130.933"><rect width="184.047" height="130.933" fill="none"/><path d="M116.232,86.367h5.377c0-1.744-.581-2.979-2.616-2.979C117.395,83.388,116.378,84.55,116.232,86.367Zm9.518.073c0,2.034-.8,2.616-2.18,2.616H116.16c.073,2.47,1.526,3.2,3.488,3.2a8.917,8.917,0,0,0,3.342-.727c.436-.145.581-.145.727.218l.945,2.034c.145.363.073.509-.291.727a9.75,9.75,0,0,1-5.159,1.308c-5.086,0-7.411-2.4-7.411-7.847,0-5.086,2.834-8.065,7.193-8.065,4.5,0,6.757,2.325,6.757,6.539Z" transform="translate(-30.566 -21.845)" fill="#030303"/><path d="M142.063,83.557a11.217,11.217,0,0,0-2.18.291v7.92a9.026,9.026,0,0,0,2.4.291c1.962,0,3.27-1.163,3.27-4.36S144.242,83.557,142.063,83.557Zm-2.834,17.874H136.25c-.436,0-.654-.073-.654-.509V82.032a.8.8,0,0,1,.581-.872A16.094,16.094,0,0,1,142.571,80c5.522,0,7.339,3.488,7.339,7.92s-2.107,7.92-6.83,7.92a16.693,16.693,0,0,1-3.27-.363V101c0,.363-.073.436-.581.436Z" transform="translate(-37.069 -21.869)" fill="#030303"/><path d="M166.635,83.557a11.217,11.217,0,0,0-2.18.291v7.92a9.026,9.026,0,0,0,2.4.291c1.962,0,3.27-1.163,3.27-4.36S168.815,83.557,166.635,83.557ZM163.8,101.432H160.75c-.436,0-.654-.073-.654-.509V82.032a.8.8,0,0,1,.581-.872A16.094,16.094,0,0,1,167.071,80c5.522,0,7.339,3.488,7.339,7.92s-2.18,7.92-6.83,7.92a16.693,16.693,0,0,1-3.27-.363V101c.073.363,0,.436-.509.436Z" transform="translate(-43.768 -21.869)" fill="#030303"/><path d="M171.081,105.709c-.509,0-.872.363-.872,1.163s.291,1.09.8,1.09a2.122,2.122,0,0,0,.654-.145v-2.034a1.806,1.806,0,0,0-.581-.073Zm1.017-.218a.071.071,0,0,1,.073.073v2.47c0,1.017-.509,1.381-1.381,1.453-.073,0-.073,0-.073-.073l-.073-.291a.071.071,0,0,1,.073-.073h0c.654-.073.945-.291.945-.872h0a2.582,2.582,0,0,1-.727.145c-.872,0-1.235-.654-1.235-1.526s.436-1.6,1.308-1.6a3.045,3.045,0,0,1,1.09.291Z" transform="translate(-46.396 -28.762)" fill="#030303"/><path d="M175.726,106.027a1.093,1.093,0,0,0-.8-.291h-.291v2.47c0,.073,0,.073-.073.073h-.291c-.073,0-.073,0-.073-.073v-2.47c0-.291.073-.363.363-.436H175a1.958,1.958,0,0,1,1.09.363v.073l-.218.291c-.073.073-.073,0-.145,0Z" transform="translate(-47.627 -28.789)" fill="#030303"/><path d="M178.535,105.763c-.581,0-.8.509-.8,1.163s.218,1.163.8,1.163.8-.581.8-1.09-.145-1.235-.8-1.235Zm0,2.688c-.8,0-1.235-.509-1.235-1.526s.581-1.526,1.235-1.526a1.36,1.36,0,0,1,1.235,1.526c0,.945-.363,1.526-1.235,1.526Z" transform="translate(-48.474 -28.817)" fill="#030303"/><path d="M181.745,105.4h.291c.073,0,.073,0,.073.073V107c0,.727.145,1.017.8,1.017a1.237,1.237,0,0,0,.509-.073v-2.47c0-.073,0-.073.073-.073h.291c.073,0,.073,0,.073.073v2.47a.461.461,0,0,1-.363.436c-.218,0-.509.073-.654.073-.945,0-1.235-.363-1.235-1.381v-1.526c.073-.145.073-.145.145-.145Z" transform="translate(-49.65 -28.817)" fill="#030303"/><path d="M186.99,105.736c-.218,0-.436.073-.654.073v2.034a2.012,2.012,0,0,0,.654.073c.509,0,.8-.291.8-1.163s-.291-1.017-.8-1.017Zm.073,2.616a2.011,2.011,0,0,1-.654-.073v1.09c0,.073,0,.073-.073.073h-.363c-.073,0-.073,0-.073-.073v-3.778c0-.073,0-.073.073-.073a2.916,2.916,0,0,1,1.09-.218c.872,0,1.235.654,1.235,1.526s-.363,1.526-1.235,1.526Z" transform="translate(-50.826 -28.789)" fill="#030303"/><path d="M112.591,115.4h-.218c-.073,0-.073,0-.073-.073v-2.18c0-.073,0-.073.073-.073h.218c.073,0,.073,0,.073.073l-.073,2.252Zm-.073-2.761a.218.218,0,1,1,.218-.218.193.193,0,0,1-.218.218Z" transform="translate(-30.703 -30.676)" fill="#030303"/><path d="M115.617,115.7H115.4c-.073,0-.073,0-.073-.073v-1.163c0-.581-.145-.872-.727-.872a.922.922,0,0,0-.436.073v1.962c0,.073,0,.073-.073.073h-.218c-.073,0-.073,0-.073-.073v-1.962c0-.145.073-.291.218-.291h0c.218,0,.363-.073.581-.073.727,0,1.017.291,1.017,1.09v1.163c.145.145.145.145,0,.145Z" transform="translate(-31.113 -30.977)" fill="#030303"/><path d="M119,113.3v-.073c0-.073,0-.073.073-.073l.363-.073.073-.436c0-.073,0-.073.073-.073l.145-.073c.073,0,.073,0,.073.073v.509h.509c.073,0,.073,0,.073.073v.145a.071.071,0,0,1-.073.073h-.581V114.9c0,.218.073.363.291.363h.436v.218c-.145,0-.291.073-.436.073-.436,0-.581-.218-.581-.581v-1.526h-.291C119,113.372,119,113.372,119,113.3Z" transform="translate(-32.535 -30.758)" fill="#030303"/><path d="M123.416,115.37H123.2c-.073,0-.073,0-.073-.073v-1.308c0-.509-.218-.727-.581-.727a1.6,1.6,0,0,0-.581.073V115.3c0,.073,0,.073-.073.073h-.218c-.073,0-.073,0-.073-.073v-3.124c0-.073,0-.073.073-.073h.218c.073,0,.073,0,.073.073v.872a2.246,2.246,0,0,1,.581-.145c.654,0,.872.363.872,1.017v1.453Z" transform="translate(-33.246 -30.648)" fill="#030303"/><path d="M126.117,113.563c-.436,0-.581.363-.654.727H126.7C126.7,113.927,126.553,113.563,126.117,113.563Zm.872.727a.266.266,0,0,1-.291.291h-1.308c0,.581.291.872.727.872a1.347,1.347,0,0,0,.509-.145h.073l.073.145v.073h0a1.08,1.08,0,0,1-.654.145c-.654,0-1.017-.363-1.017-1.235s.436-1.235.945-1.235a1,1,0,0,1,.945,1.09Z" transform="translate(-34.203 -30.949)" fill="#030303"/><path d="M131.345,113.563a.668.668,0,0,0-.654.727H132C131.926,113.927,131.781,113.563,131.345,113.563Zm.945.727a.266.266,0,0,1-.291.291h-1.308c0,.581.291.872.727.872a1.347,1.347,0,0,0,.509-.145H132l.073.145v.073h0a1.08,1.08,0,0,1-.654.145c-.654,0-1.017-.363-1.017-1.235s.436-1.235.945-1.235a1.048,1.048,0,0,1,.945,1.09Z" transform="translate(-35.652 -30.949)" fill="#030303"/><path d="M133.879,113.3h.218c.073,0,.073,0,.073.073v1.235c0,.581.073.872.727.872a.922.922,0,0,0,.436-.073v-1.962c0-.073,0-.073.073-.073h.218c.073,0,.073,0,.073.073v1.962c0,.145-.073.291-.218.291h0c-.145,0-.363.073-.581.073-.727,0-1.017-.291-1.017-1.09V113.3Z" transform="translate(-36.588 -30.977)" fill="#030303"/><path d="M138.508,113.781a.921.921,0,0,0-.654-.291h-.291v2.034c0,.073,0,.073-.073.073h-.218c-.073,0-.073,0-.073-.073v-2.034c0-.218.073-.291.218-.291h.363a1.093,1.093,0,0,1,.8.291v.073h0l-.145.145c.145.073.145.073.073.073Z" transform="translate(-37.511 -30.949)" fill="#030303"/><path d="M140.845,113.563c-.436,0-.654.436-.654.945s.145.945.654.945.654-.509.654-.945-.073-.945-.654-.945Zm0,2.107c-.654,0-.945-.436-.945-1.235s.436-1.235.945-1.235.945.436.945,1.163-.291,1.308-.945,1.308Z" transform="translate(-38.249 -30.949)" fill="#030303"/><path d="M144.272,113.591a1.236,1.236,0,0,0-.509.073v1.671a1.236,1.236,0,0,0,.509.073c.436,0,.654-.291.654-.945S144.708,113.591,144.272,113.591Zm.073,2.107a1.6,1.6,0,0,1-.581-.073v.872c0,.073,0,.073-.073.073h-.218c-.073,0-.073,0-.073-.073v-2.979c0-.073,0-.073.073-.073a1.843,1.843,0,0,1,.872-.145c.654,0,.945.509.945,1.235s-.291,1.163-.945,1.163Z" transform="translate(-39.206 -30.977)" fill="#030303"/><path d="M147.817,113.563a.668.668,0,0,0-.654.727H148.4C148.4,113.927,148.253,113.563,147.817,113.563Zm.872.727a.266.266,0,0,1-.291.291h-1.308c0,.581.291.872.727.872a1.347,1.347,0,0,0,.509-.145h.073l.073.145v.073a1.08,1.08,0,0,1-.654.145c-.654,0-1.017-.363-1.017-1.235s.436-1.235.945-1.235a.945.945,0,0,1,.945.8c.073.145.073.218,0,.291Z" transform="translate(-40.136 -30.949)" fill="#030303"/><path d="M151.072,114.435c-.218,0-.581.073-.581.509s.291.436.581.436a1.6,1.6,0,0,0,.581-.073v-.872Zm.8,1.09a3.09,3.09,0,0,1-.8.145c-.727,0-.872-.363-.872-.727a.823.823,0,0,1,.872-.8h.581V114c0-.291-.073-.509-.581-.509-.218,0-.436.073-.581.073h-.073l-.073-.145v-.073a2.582,2.582,0,0,1,.727-.145c.581,0,.8.291.8.727v1.6Z" transform="translate(-41.065 -30.949)" fill="#030303"/><path d="M155.417,115.7H155.2c-.073,0-.073,0-.073-.073v-1.163c0-.581-.145-.872-.727-.872a.922.922,0,0,0-.436.073v1.962c0,.073,0,.073-.073.073h-.218c-.073,0-.073,0-.073-.073v-1.962c0-.145.073-.291.218-.291.218,0,.363-.073.581-.073.727,0,1.017.291,1.017,1.09v1.163c.073.145.073.145,0,.145Z" transform="translate(-41.995 -30.977)" fill="#030303"/><path d="M159.772,113.591a1.236,1.236,0,0,0-.509.073v1.671a1.236,1.236,0,0,0,.509.073c.436,0,.727-.291.727-.945S160.208,113.591,159.772,113.591Zm.073,2.107a1.6,1.6,0,0,1-.581-.073v.872c0,.073,0,.073-.073.073h-.218c-.073,0-.073,0-.073-.073v-2.979c0-.073,0-.073.073-.073a1.843,1.843,0,0,1,.872-.145c.654,0,.945.509.945,1.235s-.218,1.163-.945,1.163Z" transform="translate(-43.444 -30.977)" fill="#030303"/><path d="M163.3,114.435c-.218,0-.581.073-.581.509s.291.436.581.436a1.6,1.6,0,0,0,.581-.073v-.872Zm.872,1.09a3.09,3.09,0,0,1-.8.145c-.727,0-.872-.363-.872-.727a.823.823,0,0,1,.872-.8h.581V114c0-.291-.073-.509-.581-.509-.218,0-.436.073-.581.073h-.073l-.073-.145v-.073a2.582,2.582,0,0,1,.727-.145c.581,0,.8.291.8.727v1.6Z" transform="translate(-44.428 -30.949)" fill="#030303"/><path d="M167.135,113.781a.921.921,0,0,0-.654-.291h-.291v2.034c0,.073,0,.073-.073.073h-.145c-.073,0-.073,0-.073-.073v-2.034c0-.218.073-.291.218-.291h.363a1.093,1.093,0,0,1,.8.291v.073h0l-.145.145c.073.073,0,.073,0,.073Z" transform="translate(-45.358 -30.949)" fill="#030303"/><path d="M169.254,115.37c-.073,0-.218.073-.291.073-.291,0-.363-.145-.363-.436v-2.834c0-.073,0-.073.073-.073h.218c.073,0,.073,0,.073.073v2.688c0,.145,0,.218.145.218h.218v.145c0,.073,0,.073-.073.145Z" transform="translate(-46.096 -30.648)" fill="#030303"/><path d="M170.663,115.424h-.218c-.073,0-.073,0-.073-.073v-2.18c0-.073,0-.073.073-.073h.218c.073,0,.073,0,.073.073l-.073,2.252Zm-.145-2.761c-.145,0-.218-.073-.218-.145,0-.145.073-.218.145-.218h.073c.145,0,.218.145.145.218C170.663,112.591,170.663,112.663,170.518,112.663Z" transform="translate(-46.561 -30.703)" fill="#030303"/><path d="M172.672,114.435c-.218,0-.581.073-.581.509s.291.436.581.436a1.6,1.6,0,0,0,.581-.073v-.872Zm.8,1.09a3.09,3.09,0,0,1-.8.145c-.727,0-.872-.363-.872-.727a.823.823,0,0,1,.872-.8h.581V114c0-.291-.073-.509-.581-.509-.218,0-.436.073-.581.073h-.073l-.073-.145v-.073a2.582,2.582,0,0,1,.727-.145c.581,0,.8.291.8.727v1.6Z" transform="translate(-46.971 -30.949)" fill="#030303"/><path d="M178.342,114.39v1.235c0,.073,0,.073-.073.073h-.218c-.073,0-.073,0-.073-.073v-1.163c0-.581-.145-.872-.654-.872a1.369,1.369,0,0,0-.581.145,1.026,1.026,0,0,1,.073.654v1.235c0,.073,0,.073-.073.073h-.218c-.073,0-.073,0-.073-.073V114.39c0-.509-.145-.8-.654-.8a.922.922,0,0,0-.436.073v1.962c0,.073,0,.073-.073.073h-.218c-.073,0-.073,0-.073-.073v-1.962c0-.145.073-.291.218-.291h0c.145,0,.291-.073.436-.073a.933.933,0,0,1,.727.291h0a1.524,1.524,0,0,1,.8-.291c1.09,0,1.235.436,1.163,1.09Z" transform="translate(-47.845 -30.977)" fill="#030303"/><path d="M181.545,113.563a.668.668,0,0,0-.654.727h1.235A.551.551,0,0,0,181.545,113.563Zm.945.727a.266.266,0,0,1-.291.291h-1.308c0,.581.291.872.727.872a1.347,1.347,0,0,0,.509-.145h.073l.073.145v.073h0a1.08,1.08,0,0,1-.654.145c-.654,0-1.017-.363-1.017-1.235s.436-1.235.945-1.235a1.048,1.048,0,0,1,.945,1.09Z" transform="translate(-49.377 -30.949)" fill="#030303"/><path d="M185.716,115.7H185.5c-.073,0-.073,0-.073-.073v-1.163c0-.581-.145-.872-.727-.872a.922.922,0,0,0-.436.073v1.962c0,.073,0,.073-.073.073h-.218c-.073,0-.073,0-.073-.073v-1.962c0-.145.073-.291.218-.291h0c.218,0,.363-.073.581-.073.727,0,1.017.291,1.017,1.09v1.163c.145.145.145.145,0,.145Z" transform="translate(-50.279 -30.977)" fill="#030303"/><path d="M187.2,113.3v-.073c0-.073,0-.073.073-.073l.363-.073.073-.436a.071.071,0,0,1,.073-.073h0l.145-.073c.073,0,.073,0,.073.073v.509h.509c.073,0,.073,0,.073.073v.145a.071.071,0,0,1-.073.073H188V114.9c0,.218.073.363.291.363h.436v.218c-.145,0-.291.073-.436.073-.436,0-.581-.218-.581-.581v-1.526l-.509-.145Z" transform="translate(-51.181 -30.758)" fill="#030303"/><path d="M103.853,106.134l-1.453-1.09,1.816-.073.581-1.671.509,1.671h1.816l-1.453,1.09.509,1.744-1.453-1.09-1.453,1.09Z" transform="translate(-27.996 -28.243)" fill="#030303"/><path d="M96.881,109.463l.727-1.163.145,1.453,1.453.291-1.381.509.145,1.453-.945-1.09-1.381.509.8-1.235-.945-1.017Z" transform="translate(-26.11 -29.61)" fill="#030303"/><path d="M82.39,113.554l.654-.654-.145.945.872.509-.945.145-.145.945-.436-.872-.945.073.654-.654-.436-.872Z" transform="translate(-22.228 -30.867)" fill="#030303"/><path d="M89.763,112.072l.727-.872-.073,1.163,1.09.436-1.09.291-.073,1.09-.654-.945-1.09.291.727-.872-.654-1.017Z" transform="translate(-24.223 -30.402)" fill="#030303"/><path d="M87.424,73.675a16.085,16.085,0,0,1,14.459-.363c-3.342-4.723-10.1-4.36-13.079-2.688-1.235-4.723-6.176-7.775-10.972-8.138S67.879,64.3,65.772,68.443s-4.8,13.151,9.882,29.5h0C69.187,87.7,68.024,81.885,68.17,76.218c.145-4.8,3.052-8.283,6.757-9.3,7.993-1.889,11.7,3.851,12.5,6.757Z" transform="translate(-17.526 -17.073)" fill="#030303" fill-rule="evenodd"/></svg>