<svg xmlns="http://www.w3.org/2000/svg" width="184.047" height="130.933" viewBox="0 0 184.047 130.933"><rect width="184.047" height="130.933" fill="none"/><path d="M80.533,94.454,81.841,97.8c-.509.145-1.163.436-1.744.581a21.6,21.6,0,0,1-10.318.581c-3.633-.727-5.086-2.979-5.231-6.176a103.32,103.32,0,0,1,0-10.608c.145-2.761,1.308-5.014,4.142-6.031a12.441,12.441,0,0,1,3.27-.654,25.718,25.718,0,0,1,4.723.218,5.712,5.712,0,0,1,4.941,5.086,28.22,28.22,0,0,1,.291,3.488c.073,1.381,0,2.688,0,4.069,0,.509-.145.654-.654.654H69.78a.419.419,0,0,0-.436.436c0,1.09,0,2.18.073,3.342.145,1.671.8,2.325,2.543,2.47a20.125,20.125,0,0,0,7.775-.727,2.582,2.582,0,0,1,.727-.145C80.461,94.454,80.461,94.454,80.533,94.454Zm-7.411-9.01h3.342c.291,0,.509,0,.509-.436-.073-1.235,0-2.47-.145-3.706a2.237,2.237,0,0,0-1.744-1.962,7.678,7.678,0,0,0-3.633,0,2.4,2.4,0,0,0-2.034,2.18c-.145,1.09-.145,2.18-.218,3.2,0,.509.145.727.654.727C71.015,85.371,72.1,85.444,73.122,85.444Z" transform="translate(-17.61 -20.632)" fill="#030303"/><path d="M171.532,87.361v5.522A5.533,5.533,0,0,1,167.1,98.7a15.89,15.89,0,0,1-8.647,0,5.525,5.525,0,0,1-4.36-5.813V81.766a5.554,5.554,0,0,1,4.5-5.885,15.6,15.6,0,0,1,8.937.145,5.433,5.433,0,0,1,4,5.595v5.74Zm-4.941,0h0V81.476a1.965,1.965,0,0,0-1.453-1.962,7.5,7.5,0,0,0-4.723,0,1.863,1.863,0,0,0-1.381,1.526,11.923,11.923,0,0,0-.145,1.671v9.518a7.049,7.049,0,0,0,.073,1.235,2.171,2.171,0,0,0,1.6,1.889,8.855,8.855,0,0,0,4.36,0,1.86,1.86,0,0,0,1.6-2.034c.145-2.034.073-4,.073-5.958Z" transform="translate(-42.125 -20.587)" fill="#030303"/><path d="M110.711,87.38V98.134c0,.363-.073.581-.509.654-2.47.218-4.868.581-7.339.654a14.476,14.476,0,0,1-5.3-.8,6,6,0,0,1-4.214-5.159,13.288,13.288,0,0,1-.145-2.4V76.7c0-.8,0-.8.8-.8h3.415c.509,0,.654.145.654.654V90.868a6.506,6.506,0,0,0,.145,1.671,3.237,3.237,0,0,0,2.616,2.761,15.156,15.156,0,0,0,4.432.218c.509-.073.581-.218.581-.727V76.772c0-.8,0-.8.8-.8h3.415c.509,0,.654.145.654.654,0,3.56,0,7.121,0,10.754Z" transform="translate(-25.481 -20.751)" fill="#030303"/><path d="M125.7,93.036V89.185a1.085,1.085,0,0,1,.218-.509c3.27-4.142,6.612-8.211,9.882-12.352a1.732,1.732,0,0,1,.8-.436c1.816-.073,3.633,0,5.449,0,.509,0,.581.145.581.581V98.412c0,.509-.145.654-.654.654h-3.415c-.509,0-.727-.145-.654-.654v-4.36c0-.945,0-.945-.945-.945H126.427A2.24,2.24,0,0,0,125.7,93.036Zm12.207-12.643-.145-.073c-2.4,2.979-4.8,5.958-7.266,9.082.363,0,.581.073.8.073h5.885c.581,0,.727-.145.727-.727V80.974A1.551,1.551,0,0,0,137.907,80.393Z" transform="translate(-34.367 -20.739)" fill="#030303"/><path d="M183.923,77.466a2.7,2.7,0,0,1-2.834-2.616v-.291a2.9,2.9,0,1,1,5.74-.8,2.067,2.067,0,0,1,0,.945,2.7,2.7,0,0,1-2.616,2.834A.549.549,0,0,0,183.923,77.466Zm2.325-2.906a2.146,2.146,0,0,0-2.034-2.325h-.291a2.341,2.341,0,0,0-2.325,2.325,2.391,2.391,0,0,0,2.325,2.325,2.238,2.238,0,0,0,2.252-2.107.267.267,0,0,1,.073-.218Z" transform="translate(-49.503 -19.483)" fill="#030303"/><path d="M183.845,73.9h.8a.816.816,0,0,1,.8,1.235.778.778,0,0,0,.073,1.017.267.267,0,0,1,.073.218c-.727.073-.654-1.163-1.526-.727l-.218.727H183.7Zm1.381.872c0-.436-.291-.509-.654-.509s-.436.218-.436.509.073.581.436.581S185.226,75.208,185.226,74.772Z" transform="translate(-50.224 -20.204)" fill="#030303"/></svg>