<svg xmlns="http://www.w3.org/2000/svg" width="184.047" height="130.933" viewBox="0 0 184.047 130.933"><rect width="184.047" height="130.933" fill="none"/><path d="M131.9,86.1v27.465h41.125V86.1Zm9.736,13.369h1.308l.363-1.235.363,1.235h1.308l-1.017.727.436,1.235-1.017-.727-1.017.727.436-1.235Zm3.924,6.539-1.017-.727-1.017.727.436-1.235-1.017-.727h1.308l.363-1.235.363,1.235h1.308l-1.017.727Zm-.363-10.39.436,1.235-1.017-.727-1.017.727.436-1.235-1.017-.727h1.308l.363-1.235.363,1.235h1.308Zm3.778,13.733-1.017-.8-1.017.727.436-1.235-1.017-.727h1.308l.363-1.235.363,1.235H149.7l-1.017.727Zm-.436-17.075.436,1.235-1.017-.727-1.017.727.436-1.235-1.017-.727h1.308l.363-1.235.363,1.235H149.7Zm4.941,18.31-1.017-.727-1.017.727.436-1.235-1.017-.727h1.308l.436-1.235.363,1.235h1.308l-1.017.727Zm-.363-19.545.436,1.235-1.017-.727-1.017.727.436-1.235-1.017-.727h1.308l.436-1.235.363,1.235h1.308Zm4.941,18.31-1.017-.727-1.017.727.436-1.235-1.017-.727h1.308l.363-1.235.363,1.235h1.308l-1.017.727Zm-.363-17.075.436,1.235-1.017-.727-1.017.727.436-1.235-1.017-.727h1.308l.363-1.235.363,1.235h1.308Zm2.325,2.616.363-1.235.363,1.235h1.308l-1.017.727.436,1.235-1.017-.727-1.017.727.436-1.235-1.017-.727Zm1.453,11.117-1.017-.727-1.017.727.436-1.235-1.017-.727h1.308l.363-1.235.363,1.235H162.2l-1.017.727Zm1.235-4.578-1.017-.727-1.017.727.436-1.235-1.017-.727H161.4l.363-1.235.363,1.235h1.308l-1.017.727Z" transform="translate(-36.062 -23.54)" fill="#030303"/><path d="M138.7,76.8V74.543A20.265,20.265,0,0,0,132.6,72v1.6A14.13,14.13,0,0,1,138.7,76.8Z" transform="translate(-36.253 -19.685)" fill="#030303"/><path d="M143.054,81.368h1.962A6.122,6.122,0,0,0,142.4,76.5v2.761A3.618,3.618,0,0,1,143.054,81.368Z" transform="translate(-38.933 -20.915)" fill="#030303"/><path d="M150,75.3v2.47a7.191,7.191,0,0,1,2.034,3.342h2.107A10.225,10.225,0,0,0,150,75.3Z" transform="translate(-41.01 -20.587)" fill="#030303"/><path d="M144.673,74.958V72.706A31.569,31.569,0,0,0,135.3,69v1.6A26.942,26.942,0,0,1,144.673,74.958Z" transform="translate(-36.991 -18.865)" fill="#030303"/><path d="M150.9,72.757v-2.18A41.346,41.346,0,0,0,138.4,66v1.6A37.638,37.638,0,0,1,150.9,72.757Z" transform="translate(-37.839 -18.045)" fill="#030303"/><path d="M157.6,73.6v2.325a13.035,13.035,0,0,1,3.778,4.65h2.18C162.832,78.1,160,75.126,157.6,73.6Z" transform="translate(-43.088 -20.122)" fill="#030303"/><path d="M157.658,70.42V68.24A53.091,53.091,0,0,0,141.6,62.5v1.6C147.485,65.261,154.461,68.095,157.658,70.42Z" transform="translate(-38.714 -17.088)" fill="#030303"/><path d="M171.349,80.056h2.325c-1.671-4-5.813-7.121-7.775-8.356v2.4A18.523,18.523,0,0,1,171.349,80.056Z" transform="translate(-45.358 -19.603)" fill="#030303"/><path d="M164.5,68V65.748A62.025,62.025,0,0,0,145.1,58.7v1.671C151.712,61.679,160.141,64.949,164.5,68Z" transform="translate(-39.671 -16.049)" fill="#030303"/><path d="M181.1,79.536h2.543A27.561,27.561,0,0,0,174.2,69.8v2.4A25.531,25.531,0,0,1,181.1,79.536Z" transform="translate(-47.627 -19.084)" fill="#030303"/><path d="M127.193,72.718V71.192a36.674,36.674,0,0,0-7.993-.509v1.163A36.9,36.9,0,0,1,127.193,72.718Z" transform="translate(-32.59 -19.313)" fill="#030303"/><path d="M113.519,72.163V71a17.372,17.372,0,0,0-8.719,3.124v.945C107.125,73.18,110.467,72.381,113.519,72.163Z" transform="translate(-28.653 -19.412)" fill="#030303"/><path d="M102.841,77.59V76.5c-3.851,4.36.945,7.993,1.453,8.356V83.4C101.679,81.3,101.969,78.825,102.841,77.59Z" transform="translate(-27.711 -20.915)" fill="#030303"/><path d="M107.5,87.2v1.6a28.742,28.742,0,0,0,9.01,3.052V89.67A22.841,22.841,0,0,1,107.5,87.2Z" transform="translate(-29.391 -23.841)" fill="#030303"/><path d="M121.6,90.673v2.252c2.18.145,4.287.218,5.377.218V90.6A44.06,44.06,0,0,1,121.6,90.673Z" transform="translate(-33.246 -24.77)" fill="#030303"/><path d="M128.844,69.849V68.323a46.811,46.811,0,0,0-11.044-.654v1.163A43.464,43.464,0,0,1,128.844,69.849Z" transform="translate(-32.207 -18.479)" fill="#030303"/><path d="M112.723,96.875v-2.4c-4-.363-10.245-1.744-14.023-4.578v1.6C102.842,94.7,109.526,96.439,112.723,96.875Z" transform="translate(-26.985 -24.579)" fill="#030303"/><path d="M95.423,86.262v-1.6c-3.415-3.27-2.761-6.539-.581-8.647V75C90.627,78.851,92.226,83.5,95.423,86.262Z" transform="translate(-25.234 -20.505)" fill="#030303"/><path d="M119.9,96.4v2.47a50.8,50.8,0,0,0,6.685.436V96.545C124.332,96.618,120.917,96.473,119.9,96.4Z" transform="translate(-32.781 -26.356)" fill="#030303"/><path d="M97.4,72.087v.945c3.633-2.761,9.155-3.851,13.006-4.069V67.8C105.683,68.163,100.161,69.98,97.4,72.087Z" transform="translate(-26.629 -18.537)" fill="#030303"/><path d="M89.2,92.5v1.744c5.231,4.723,13.951,7.339,19.11,8.211V99.766C103.514,99.185,94.867,97.368,89.2,92.5Z" transform="translate(-24.388 -25.29)" fill="#030303"/><path d="M130.55,66.668V65.142a59.014,59.014,0,0,0-14.75-.8v1.235A56.146,56.146,0,0,1,130.55,66.668Z" transform="translate(-31.66 -17.55)" fill="#030303"/><path d="M117.7,102.7v2.761a63.748,63.748,0,0,0,8.283.727v-3.052A82.278,82.278,0,0,1,117.7,102.7Z" transform="translate(-32.18 -28.078)" fill="#030303"/><path d="M107.176,65.763V64.6c-4.069.363-11.408,1.816-16.276,5.086v.945C95.623,67.434,102.962,65.981,107.176,65.763Z" transform="translate(-24.852 -17.662)" fill="#030303"/><path d="M87.487,73.845V72.9c-2.18,1.671-7.629,7.339-1.381,14.459V85.615C84.726,84.09,81.311,79,87.487,73.845Z" transform="translate(-22.748 -19.931)" fill="#030303"/><path d="M132.356,63.179v-1.6a71.411,71.411,0,0,0-18.456-.872v1.235A71.372,71.372,0,0,1,132.356,63.179Z" transform="translate(-31.141 -16.532)" fill="#030303"/><path d="M115.3,109.2v2.906a75.831,75.831,0,0,0,9.954,1.09v-3.342A77.174,77.174,0,0,1,115.3,109.2Z" transform="translate(-31.523 -29.856)" fill="#030303"/><path d="M103.95,108.006v-2.834C95.3,103.937,85.785,100.813,79.9,95v1.816C86.875,103.792,98.5,107.062,103.95,108.006Z" transform="translate(-21.845 -25.973)" fill="#030303"/><path d="M84.4,67.031v.945c5.74-3.633,13.66-5.232,19.691-5.813V61C98.278,61.509,89.777,63.47,84.4,67.031Z" transform="translate(-23.075 -16.678)" fill="#030303"/><path d="M76.823,88.4V86.512c-2.252-3.052-4.5-9.155,3.342-14.968V70.6C71.373,76.849,73.553,84.551,76.823,88.4Z" transform="translate(-20.221 -19.302)" fill="#030303"/><path d="M69.6,96.7v2.034c6.612,8.574,20.272,13.66,28.846,15.477v-3.124C89.436,109.561,75.849,105.2,69.6,96.7Z" transform="translate(-19.029 -26.438)" fill="#030303"/><path d="M134.27,59.29v-1.6a84.7,84.7,0,0,0-22.67-1.017V57.91A87.977,87.977,0,0,1,134.27,59.29Z" transform="translate(-30.512 -15.404)" fill="#030303"/><path d="M100.752,58.235V57c-7.557.8-16.93,3.415-22.452,6.975v.945C85.2,60.706,94.285,58.816,100.752,58.235Z" transform="translate(-21.407 -15.584)" fill="#030303"/><path d="M111.8,116.9v3.2a81.477,81.477,0,0,0,12.57,1.6V117.99A103.538,103.538,0,0,1,111.8,116.9Z" transform="translate(-30.566 -31.961)" fill="#030303"/><path d="M73.069,68.945V68c-2.18,1.453-12.715,9.3-6.249,20.708V86.383C62.751,77.954,68.927,71.851,73.069,68.945Z" transform="translate(-17.702 -18.591)" fill="#030303"/></svg>