<svg xmlns="http://www.w3.org/2000/svg" width="184.047" height="130.933" viewBox="0 0 184.047 130.933"><rect width="184.047" height="130.933" fill="none"/><path d="M53.5,69.945,55.534,79.9l1.6-10.027L55.9,69.8l-.509,3.415L54.663,69.8Z" transform="translate(-14.627 -19.084)" fill="#030303"/><path d="M60.116,70.5,58.3,80.454l5.3-8.647-1.163-.581L60.7,74.206l.654-3.415Z" transform="translate(-15.939 -19.275)" fill="#030303"/><path d="M65.422,73.7,59.9,82.129l8.211-5.885-.872-.945-2.761,2.034,1.889-2.906Z" transform="translate(-16.377 -20.15)" fill="#030303"/><path d="M69.256,79.2,60.9,84.94l9.882-2.325-.436-1.235L67,82.252l2.834-1.962Z" transform="translate(-16.65 -21.653)" fill="#030303"/><path d="M71.082,86.2,61.2,88.307l10.027,1.6L71.3,88.67l-3.415-.509,3.415-.727Z" transform="translate(-16.732 -23.567)" fill="#030303"/><path d="M70.654,92.889,60.7,91l8.646,5.377.509-1.163L66.949,93.4l3.342.654Z" transform="translate(-16.596 -24.88)" fill="#030303"/><path d="M68,98.222,59.5,92.7l5.958,8.211.945-.872-2.034-2.761L67.2,99.167Z" transform="translate(-16.267 -25.344)" fill="#030303"/><path d="M63.467,102.056,57.8,93.7l2.325,9.882,1.163-.436-.8-3.342,1.962,2.834Z" transform="translate(-15.803 -25.618)" fill="#030303"/><path d="M57.206,103.882,55.171,94,53.5,104.027h1.308l.509-3.342.727,3.342Z" transform="translate(-14.627 -25.7)" fill="#030303"/><path d="M49.915,103.454,51.8,93.5l-5.3,8.647,1.163.509,1.744-2.906-.654,3.342Z" transform="translate(-12.713 -25.563)" fill="#030303"/><path d="M43.588,100.729,49.111,92.3,40.9,98.185l.8.945L44.533,97.1,42.571,100Z" transform="translate(-11.182 -25.235)" fill="#030303"/><path d="M39.126,96.267,47.482,90.6,37.6,92.925l.436,1.163,3.342-.8-2.906,1.889Z" transform="translate(-10.28 -24.77)" fill="#030303"/><path d="M37.145,90.006,47.1,87.971,37.073,86.3,37,87.608l3.415.509L37,88.77Z" transform="translate(-10.116 -23.595)" fill="#030303"/><path d="M37.7,82.715,47.654,84.6l-8.647-5.3L38.5,80.39l2.906,1.816-3.415-.654Z" transform="translate(-10.307 -21.681)" fill="#030303"/><path d="M40.9,76.316l8.5,5.595L43.443,73.7l-.945.8,2.034,2.834L41.7,75.371Z" transform="translate(-11.182 -20.15)" fill="#030303"/><path d="M46.5,71.853l5.667,8.356L49.842,70.4l-1.163.363.8,3.415-1.962-2.906Z" transform="translate(-12.713 -19.248)" fill="#030303"/><path d="M84.542,81.788H82v2.325h2.834v.727H81.2V78.3h3.56v.727H82.072v2.034h2.543v.727Z" transform="translate(-22.2 -21.407)" fill="#030303"/><path d="M91.524,84.342V85.65H90.8l-.073-.727h0A1.708,1.708,0,0,1,89.2,85.8c-.727,0-1.6-.436-1.6-2.034V81h.872v2.616c0,.872.291,1.526,1.017,1.526a1.091,1.091,0,0,0,1.09-.8.922.922,0,0,0,.073-.436V81.073h.872Z" transform="translate(-23.95 -22.146)" fill="#030303"/><path d="M94.973,82.326a8.808,8.808,0,0,0-.073-1.453h.727v.945h0A1.4,1.4,0,0,1,96.934,80.8h.218v.8a1.235,1.235,0,0,0-1.453.945V85.6h-.727Z" transform="translate(-25.946 -22.091)" fill="#030303"/><path d="M195.773,82.326a8.808,8.808,0,0,0-.073-1.453h.727l.073.945h0a1.4,1.4,0,0,1,1.308-1.017h.218v.8a1.235,1.235,0,0,0-1.453.945V85.6H195.7Z" transform="translate(-53.505 -22.091)" fill="#030303"/><path d="M103.076,83.2a2.286,2.286,0,0,1-2.107,2.47h-.218a2.2,2.2,0,0,1-2.252-2.18v-.218a2.329,2.329,0,0,1,2.107-2.47h.218a2.141,2.141,0,0,1,2.252,2.107Zm-3.706,0c0,1.017.581,1.816,1.381,1.816s1.453-.727,1.453-1.816c0-.8-.363-1.816-1.381-1.816S99.37,82.324,99.37,83.2Z" transform="translate(-26.929 -22.089)" fill="#030303"/><path d="M106,82.4V80.869h.727l.073.8h0a1.792,1.792,0,0,1,1.671-.872c1.163,0,1.962.945,1.962,2.4,0,1.671-1.017,2.543-2.107,2.543a1.614,1.614,0,0,1-1.453-.727h0v2.47H106Zm.872,1.235v.363a1.252,1.252,0,0,0,1.308.945c.872,0,1.453-.727,1.453-1.816,0-.945-.509-1.744-1.381-1.744a1.417,1.417,0,0,0-1.308,1.381Z" transform="translate(-28.981 -22.087)" fill="#030303"/><path d="M113.8,83.288a1.472,1.472,0,0,0,1.381,1.6h.218a4.114,4.114,0,0,0,1.308-.218l.145.581a3.91,3.91,0,0,1-1.6.291A2.1,2.1,0,0,1,113,83.434v-.291a2.285,2.285,0,0,1,2.18-2.543,1.981,1.981,0,0,1,1.962,2.18v.363Zm2.47-.581a1.228,1.228,0,0,0-1.017-1.381h-.145a1.417,1.417,0,0,0-1.308,1.381Z" transform="translate(-30.895 -22.036)" fill="#030303"/><path d="M123.133,84.406a5.5,5.5,0,0,0,.073,1.09h-.727l-.073-.581h0a1.9,1.9,0,0,1-1.453.727,1.318,1.318,0,0,1-1.453-1.235V84.26c0-1.163,1.017-1.744,2.834-1.744v-.073a.974.974,0,0,0-.8-1.09h-.218a2.45,2.45,0,0,0-1.235.363l-.218-.581a2.86,2.86,0,0,1,1.526-.436c1.453,0,1.744.945,1.744,1.889Zm-.8-1.308c-.945,0-1.962.145-1.962,1.017a.722.722,0,0,0,.654.8h.145a1.245,1.245,0,0,0,1.163-.8V83.1Z" transform="translate(-32.672 -22.064)" fill="#030303"/><path d="M126.245,82.081a7.472,7.472,0,0,0-.073-1.308h.727l.073.8h0A1.708,1.708,0,0,1,128.5,80.7c.654,0,1.671.363,1.671,1.962v2.761H129.3V82.734c0-.727-.291-1.381-1.09-1.381a1.244,1.244,0,0,0-1.163.872.79.79,0,0,0-.073.363v2.834H126.1Z" transform="translate(-34.476 -22.064)" fill="#030303"/><path d="M137.172,78.4v6.539H136.3V78.4Z" transform="translate(-37.265 -21.435)" fill="#030303"/><path d="M139.445,82.081a7.471,7.471,0,0,0-.073-1.308h.727l.073.8h0A1.708,1.708,0,0,1,141.7,80.7c.654,0,1.671.363,1.671,1.962v2.761H142.5V82.734c0-.727-.291-1.381-1.09-1.381a1.244,1.244,0,0,0-1.163.872.79.79,0,0,0-.073.363v2.834H139.3Z" transform="translate(-38.085 -22.064)" fill="#030303"/><path d="M147.626,79.3v1.09h1.235v.654h-1.235v2.543c0,.581.145.945.654.945a1.236,1.236,0,0,0,.509-.073v.654a2.582,2.582,0,0,1-.727.145,1.53,1.53,0,0,1-.945-.363,1.848,1.848,0,0,1-.291-1.235V81.117H146.1v-.654h.727v-.872Z" transform="translate(-39.944 -21.681)" fill="#030303"/><path d="M151.3,83.316a1.472,1.472,0,0,0,1.381,1.6h.218a4.114,4.114,0,0,0,1.308-.218l.145.581a3.8,3.8,0,0,1-1.526.291,2.195,2.195,0,0,1-2.325-2.034v-.291a2.285,2.285,0,0,1,2.18-2.543,1.981,1.981,0,0,1,1.962,2.18v.363Zm2.47-.581a1.272,1.272,0,0,0-1.017-1.381h-.145a1.417,1.417,0,0,0-1.308,1.381Z" transform="translate(-41.147 -22.064)" fill="#030303"/><path d="M157.473,82.326a8.808,8.808,0,0,0-.073-1.453h.727l.073.945h0a1.4,1.4,0,0,1,1.308-1.017h.218v.8a1.235,1.235,0,0,0-1.453.945V85.6H157.4Z" transform="translate(-43.034 -22.091)" fill="#030303"/><path d="M161.745,82.081a7.471,7.471,0,0,0-.073-1.308h.727l.073.8h0A1.708,1.708,0,0,1,164,80.7c.654,0,1.671.363,1.671,1.962v2.761H164.8V82.734c0-.727-.291-1.381-1.09-1.381a1.244,1.244,0,0,0-1.163.872.79.79,0,0,0-.073.363v2.834H161.6Z" transform="translate(-44.182 -22.064)" fill="#030303"/><path d="M169.472,83.316a1.472,1.472,0,0,0,1.381,1.6h.218a4.114,4.114,0,0,0,1.308-.218l.145.581a3.91,3.91,0,0,1-1.6.291,2.195,2.195,0,0,1-2.325-2.034v-.291a2.285,2.285,0,0,1,2.18-2.543,1.981,1.981,0,0,1,1.962,2.18v.363Zm2.47-.581a1.228,1.228,0,0,0-1.017-1.381h-.145a1.417,1.417,0,0,0-1.308,1.381Z" transform="translate(-46.096 -22.064)" fill="#030303"/><path d="M176.453,79.3v1.09h1.235v.654h-1.235v2.543c0,.581.145.945.654.945a1.236,1.236,0,0,0,.509-.073l.073.654a2.582,2.582,0,0,1-.727.145,1.53,1.53,0,0,1-.945-.363,1.848,1.848,0,0,1-.291-1.235V81.117H175v-.654h.727v-.872Z" transform="translate(-47.845 -21.681)" fill="#030303"/><path d="M182.673,78.4h3.488v.727h-2.688v2.18h2.47v.727h-2.47v2.979H182.6V78.4Z" transform="translate(-49.923 -21.435)" fill="#030303"/><path d="M192.776,83.169a2.286,2.286,0,0,1-2.107,2.47h-.218a2.264,2.264,0,0,1-2.252-2.252v-.218a2.329,2.329,0,0,1,2.107-2.47h.218a2.141,2.141,0,0,1,2.252,2.107Zm-3.706,0c0,1.017.581,1.816,1.381,1.816s1.381-.727,1.381-1.816c0-.8-.363-1.816-1.381-1.816S189.07,82.3,189.07,83.169Z" transform="translate(-51.453 -22.062)" fill="#030303"/><path d="M203.924,84.342V85.65H203.2l-.073-.727h0a1.631,1.631,0,0,1-1.526.872c-.727,0-1.6-.436-1.6-2.034V81h.872v2.616c0,.872.291,1.526,1.017,1.526a1.091,1.091,0,0,0,1.09-.8.922.922,0,0,0,.073-.436V81.073h.872Z" transform="translate(-54.681 -22.146)" fill="#030303"/><path d="M211.2,83.4v2.834h0V83.4Z" transform="translate(-57.743 -22.802)" fill="#030303"/><path d="M213.785,82.805v2.761h-.872V82.878c0-.727-.073-1.381-1.017-1.381s-1.017,1.308-1.017,1.308v2.834h-.872V82.805c0-.727-.291-1.235-.945-1.235a1.019,1.019,0,0,0-1.017.872.922.922,0,0,0-.073.436v2.834H207.1v-4.65h.727l.073.8h0a1.708,1.708,0,0,1,1.526-.872,1.294,1.294,0,0,1,1.163.727,1.9,1.9,0,0,1,1.453-.727C212.767,80.844,213.785,81.207,213.785,82.805Z" transform="translate(-56.622 -22.135)" fill="#030303"/><path d="M81.4,92.773a5.5,5.5,0,0,1,1.09-.073,1.709,1.709,0,0,1,1.163.363,1.167,1.167,0,0,1,.363.8,1.269,1.269,0,0,1-.291.872,2.961,2.961,0,0,1-1.308.363,1.419,1.419,0,0,1-.509-.073v1.526H81.4V92.773Zm.509,1.816a1.237,1.237,0,0,0,.509.073c.654,0,1.09-.291,1.09-.8s-.436-.8-1.017-.8a1.6,1.6,0,0,0-.581.073Z" transform="translate(-22.255 -25.344)" fill="#030303"/><path d="M88.479,95.553A1.509,1.509,0,0,1,87.1,97.079h-.145A1.457,1.457,0,0,1,85.5,95.626,1.509,1.509,0,0,1,86.881,94.1h.145a1.4,1.4,0,0,1,1.453,1.381Zm-2.47,0a.987.987,0,0,0,1.962-.218.948.948,0,0,0-.945-.872.993.993,0,0,0-1.017,1.017Z" transform="translate(-23.376 -25.727)" fill="#030303"/><path d="M90.4,92.4h.509v4.142H90.4Z" transform="translate(-24.716 -25.262)" fill="#030303"/><path d="M93.081,92.984a.483.483,0,0,1-.291.363h0a.313.313,0,0,1-.291-.291h0a.483.483,0,0,1,.291-.363h0c.145-.073.291.073.291.291ZM92.5,96.617V93.783h.509v2.761Z" transform="translate(-25.29 -25.337)" fill="#030303"/><path d="M95.017,93.1v.8h.8v.436h-.8v1.453c0,.363.073.581.436.581a.655.655,0,0,0,.363-.073v.363a1.077,1.077,0,0,1-.509.073.825.825,0,0,1-.581-.218,1.228,1.228,0,0,1-.218-.727V94.263H94v-.436h.436V93.1Z" transform="translate(-25.7 -25.454)" fill="#030303"/><path d="M97.954,92.984c0,.145-.145.363-.291.363h0a.313.313,0,0,1-.291-.291h0a.343.343,0,0,1,.363-.363C97.809,92.62,97.954,92.766,97.954,92.984ZM97.3,96.617V93.783h.509v2.761Z" transform="translate(-26.602 -25.337)" fill="#030303"/><path d="M101.47,96.834A1.8,1.8,0,0,1,99,95.671v-.145A1.522,1.522,0,0,1,100.453,94h.145a2.612,2.612,0,0,1,.8.145l-.145.436a1.08,1.08,0,0,0-.654-.145,1.059,1.059,0,1,0-.218,2.107h.145a2.582,2.582,0,0,0,.727-.145Z" transform="translate(-27.067 -25.7)" fill="#030303"/><path d="M104.862,97l-.073-.363h0a1.172,1.172,0,0,1-.945.436.875.875,0,0,1-.945-.727v-.073c0-.654.581-1.09,1.816-1.017v-.073a.593.593,0,0,0-.581-.654h-.145a1.465,1.465,0,0,0-.8.218l-.145-.363a1.668,1.668,0,0,1,1.017-.291,1.058,1.058,0,0,1,1.163.945v1.235a2.012,2.012,0,0,0,.073.654Zm-.073-1.453c-.654,0-1.308.073-1.308.581a.486.486,0,0,0,.436.509h.073a.894.894,0,0,0,.8-.509V95.55Z" transform="translate(-28.133 -25.724)" fill="#030303"/><path d="M107.4,92.4h.509v4.142H107.4Z" transform="translate(-29.363 -25.262)" fill="#030303"/><path d="M111.3,92.7h.509v3.488H113.7v.436h-2.4Z" transform="translate(-30.43 -25.344)" fill="#030303"/><path d="M115.379,95.726a.962.962,0,0,0,.945.945h.073a3.647,3.647,0,0,0,.872-.145l.073.363a2.564,2.564,0,0,1-1.017.218,1.438,1.438,0,0,1-1.526-1.235v-.145a1.457,1.457,0,0,1,1.381-1.526h.073a1.225,1.225,0,0,1,1.235,1.235V95.8Zm1.744-.363a.706.706,0,0,0-.727-.8h-.073a.872.872,0,0,0-.872.8Z" transform="translate(-31.385 -25.755)" fill="#030303"/><path d="M121.162,97l-.073-.363h0a1.172,1.172,0,0,1-.945.436.875.875,0,0,1-.945-.727v-.073c0-.654.581-1.09,1.816-1.017v-.073a.593.593,0,0,0-.581-.654h-.145a1.465,1.465,0,0,0-.8.218l-.145-.363a1.668,1.668,0,0,1,1.017-.291,1.058,1.058,0,0,1,1.163.945v1.235a2.012,2.012,0,0,0,.073.654Zm-.073-1.453c-.654,0-1.308.073-1.308.581a.486.486,0,0,0,.436.509h.073a.894.894,0,0,0,.8-.509V95.55Z" transform="translate(-32.59 -25.724)" fill="#030303"/><path d="M126.3,92.373v4.069H125.8v-.509h0a1.135,1.135,0,0,1-1.09.581,1.32,1.32,0,0,1-1.308-1.381v-.073a1.457,1.457,0,0,1,1.381-1.526h0a1.172,1.172,0,0,1,.945.436h0V92.3h.581Zm-.509,2.47v-.218a.876.876,0,0,0-.872-.581.962.962,0,0,0-.945.945v.073a.912.912,0,0,0,.872,1.017H125a1.018,1.018,0,0,0,.872-.654v-.218Z" transform="translate(-33.736 -25.235)" fill="#030303"/><path d="M128.779,95.726a.962.962,0,0,0,.945.945h.073a3.647,3.647,0,0,0,.872-.145l.073.363a2.564,2.564,0,0,1-1.017.218,1.438,1.438,0,0,1-1.526-1.235v-.145a1.457,1.457,0,0,1,1.381-1.526h.073a1.331,1.331,0,0,1,1.308,1.163V95.8Zm1.671-.363a.747.747,0,0,0-.727-.8h-.073a.872.872,0,0,0-.872.8Z" transform="translate(-35.048 -25.755)" fill="#030303"/><path d="M133,95.117v-.945h.436v.581h0a.872.872,0,0,1,.872-.654h.145v.509h-.218a.717.717,0,0,0-.727.654v1.671H133Z" transform="translate(-36.363 -25.727)" fill="#030303"/><path d="M135.618,96.4a1.228,1.228,0,0,0,.727.218c.436,0,.581-.218.581-.436s-.145-.363-.581-.509c-.581-.145-.8-.436-.8-.8A.925.925,0,0,1,136.563,94a2.582,2.582,0,0,1,.727.145l-.145.363a1.08,1.08,0,0,0-.654-.145c-.291,0-.509.145-.509.363s.218.363.581.509c.509.145.8.436.8.872s-.363.872-1.09.872a1.935,1.935,0,0,1-.872-.218Z" transform="translate(-37.019 -25.7)" fill="#030303"/><path d="M139.3,92.4h.509v1.816h0a.744.744,0,0,1,.436-.363,1.369,1.369,0,0,1,.581-.145,1.1,1.1,0,0,1,1.09,1.235v1.6h-.509V95.016c0-.509-.218-.872-.727-.872a.893.893,0,0,0-.8.509c0,.073-.073.145-.073.218v1.671H139.3Z" transform="translate(-38.085 -25.262)" fill="#030303"/><path d="M144.681,92.984c0,.145-.145.363-.291.363h0a.313.313,0,0,1-.291-.291h0c0-.145.145-.363.291-.363h0c.145-.073.291.073.291.291Zm-.581,3.633V93.783h.509v2.761Z" transform="translate(-39.397 -25.337)" fill="#030303"/><path d="M146.073,95.117v-.945h.436v.509h0a1.32,1.32,0,0,1,1.163-.581,1.3,1.3,0,0,1,1.308,1.308v.145a1.4,1.4,0,0,1-1.308,1.526h-.145a1.178,1.178,0,0,1-1.017-.509h0v1.6H146Zm.509.727a.825.825,0,0,0,.872.8h.073a.962.962,0,0,0,.945-.945v-.145a.92.92,0,0,0-.872-1.017h-.073a.872.872,0,0,0-.872.654.267.267,0,0,1-.073.218Z" transform="translate(-39.917 -25.727)" fill="#030303"/><path d="M152.836,96.487v-2.4H152.4v-.436h.436v-.145a1.36,1.36,0,0,1,.363-1.017,1.291,1.291,0,0,1,.727-.291.922.922,0,0,1,.436.073l-.073.436a.655.655,0,0,0-.363-.073c-.436,0-.581.436-.581.872v.145h.727v.436h-.727v2.325Z" transform="translate(-41.667 -25.208)" fill="#030303"/><path d="M157.979,95.578A1.509,1.509,0,0,1,156.6,97.1h-.145A1.4,1.4,0,0,1,155,95.724v-.073a1.457,1.457,0,0,1,1.453-1.453h0a1.4,1.4,0,0,1,1.526,1.308Zm-2.47,0a.987.987,0,0,0,1.962-.218,1,1,0,0,0-.945-.872.9.9,0,0,0-.945,1.017Z" transform="translate(-42.377 -25.752)" fill="#030303"/><path d="M160,95.117v-.945h.436v.581h0a.939.939,0,0,1,.872-.654h.145v.509h-.218a.717.717,0,0,0-.727.654v1.671H160Z" transform="translate(-43.744 -25.727)" fill="#030303"/><path d="M164.8,92.767a7.049,7.049,0,0,1,1.235-.073,2.392,2.392,0,0,1,1.816.581,1.819,1.819,0,0,1,.581,1.308,2.16,2.16,0,0,1-.581,1.453,2.737,2.737,0,0,1-1.962.581,4.811,4.811,0,0,1-1.09-.073Zm.509,3.415h.654c1.308,0,1.889-.654,1.889-1.671s-.581-1.453-1.816-1.453a2.472,2.472,0,0,0-.727.073Z" transform="translate(-45.057 -25.339)" fill="#030303"/><path d="M171.154,92.963c0,.218-.218.291-.363.291a.313.313,0,0,1-.291-.291.483.483,0,0,1,.291-.363h0a.343.343,0,0,1,.363.363Zm-.581,3.633V93.763h.509v2.761Z" transform="translate(-46.615 -25.317)" fill="#030303"/><path d="M175.161,94.145v2.4a1.7,1.7,0,0,1-.436,1.308,1.958,1.958,0,0,1-1.09.363,1.668,1.668,0,0,1-1.017-.291l.145-.436a1.412,1.412,0,0,0,.945.218.9.9,0,0,0,1.017-.8V96.4h0a1.1,1.1,0,0,1-1.017.509A1.3,1.3,0,0,1,172.4,95.6v-.073A1.509,1.509,0,0,1,173.781,94a1.1,1.1,0,0,1,1.017.509h0v-.436Zm-.581,1.163V95.09a.85.85,0,0,0-.8-.581.962.962,0,0,0-.945.945v.073a.961.961,0,0,0,.872,1.017h.073a.872.872,0,0,0,.872-.8h0Z" transform="translate(-47.135 -25.7)" fill="#030303"/><path d="M177.981,92.984c0,.145-.145.363-.291.363h0a.313.313,0,0,1-.291-.291h0c0-.145.145-.363.291-.363h0c.145-.073.291.073.291.291Zm-.581,3.633V93.783h.509v2.761Z" transform="translate(-48.502 -25.337)" fill="#030303"/><path d="M179.845,93.1v.8h.8v.436h-.8v1.453c0,.363.073.581.436.581a.655.655,0,0,0,.363-.073v.363a1.236,1.236,0,0,1-.509.073.825.825,0,0,1-.581-.218,1.228,1.228,0,0,1-.218-.727V94.263H178.9v-.436h.436V93.1Z" transform="translate(-48.912 -25.454)" fill="#030303"/><path d="M183.762,97l-.073-.363h0a1.172,1.172,0,0,1-.945.436.875.875,0,0,1-.945-.727v-.073c0-.654.654-1.09,1.816-1.017v-.073a.593.593,0,0,0-.581-.654h-.145a1.465,1.465,0,0,0-.8.218l-.145-.363a1.668,1.668,0,0,1,1.017-.291,1.058,1.058,0,0,1,1.163.945v1.235a2.012,2.012,0,0,0,.073.654Zm-.073-1.453c-.654,0-1.308.073-1.308.581a.486.486,0,0,0,.436.509h.073a.786.786,0,0,0,.8-.509V95.55Z" transform="translate(-49.705 -25.724)" fill="#030303"/><path d="M186.4,92.4h.509v4.142H186.4Z" transform="translate(-50.962 -25.262)" fill="#030303"/><path d="M190.045,95.97a1.668,1.668,0,0,0,1.017.291c.581,0,.872-.291.872-.654s-.218-.581-.8-.727c-.727-.218-1.163-.581-1.163-1.09a1.227,1.227,0,0,1,1.308-1.09,2.011,2.011,0,0,1,.945.218l-.145.436a1.656,1.656,0,0,0-.8-.218c-.581,0-.8.291-.8.581s.218.581.872.727c.727.218,1.09.509,1.09,1.163s-.436,1.163-1.453,1.163a1.892,1.892,0,0,1-1.09-.291Z" transform="translate(-51.919 -25.344)" fill="#030303"/><path d="M197.179,95.551a1.509,1.509,0,0,1-1.381,1.526h-.145A1.4,1.4,0,0,1,194.2,95.7v-.073a1.509,1.509,0,0,1,1.381-1.526h.145a1.4,1.4,0,0,1,1.526,1.308C197.179,95.478,197.179,95.478,197.179,95.551Zm-2.47,0a1.03,1.03,0,0,0,.872,1.09h.073a.993.993,0,0,0,1.017-1.017v-.073a.987.987,0,1,0-1.962-.218v.218Z" transform="translate(-53.095 -25.725)" fill="#030303"/><path d="M201.37,96.834a1.8,1.8,0,0,1-2.47-1.163v-.145A1.522,1.522,0,0,1,200.353,94h.145a2.612,2.612,0,0,1,.8.145l-.145.436a1.31,1.31,0,0,0-.727-.145,1.059,1.059,0,1,0-.218,2.107h.145a2.582,2.582,0,0,0,.727-.145Z" transform="translate(-54.38 -25.7)" fill="#030303"/><path d="M203.854,92.984c0,.145-.145.363-.291.363h0a.313.313,0,0,1-.291-.291h0c0-.145.145-.363.291-.363h0c.145-.073.291.073.291.291Zm-.654,3.633V93.783h.581v2.761Z" transform="translate(-55.555 -25.337)" fill="#030303"/><path d="M205.379,95.726a.962.962,0,0,0,.945.945h.073a3.647,3.647,0,0,0,.872-.145l.073.363a2.564,2.564,0,0,1-1.017.218,1.438,1.438,0,0,1-1.526-1.235v-.145a1.457,1.457,0,0,1,1.381-1.526h.073a1.225,1.225,0,0,1,1.235,1.235V95.8Zm1.671-.363a.706.706,0,0,0-.727-.8h-.073a.872.872,0,0,0-.872.8Z" transform="translate(-55.991 -25.755)" fill="#030303"/><path d="M210.245,93.1v.8h.8v.436h-.8v1.453c0,.363.073.581.436.581a.655.655,0,0,0,.363-.073v.363a1.077,1.077,0,0,1-.509.073.825.825,0,0,1-.581-.218,1.228,1.228,0,0,1-.218-.727V94.263H209.3v-.436h.436V93.1Z" transform="translate(-57.223 -25.454)" fill="#030303"/><path d="M212.481,94.173l.654,1.671c.073.145.145.436.218.581h0a5.006,5.006,0,0,0,.218-.581l.654-1.671h.581l-.872,2.034a4.25,4.25,0,0,1-1.017,1.744,2.581,2.581,0,0,1-.654.291l-.145-.436a2.418,2.418,0,0,0,.436-.218,1.959,1.959,0,0,0,.509-.581.225.225,0,0,1,.073-.145c0-.073,0-.073-.073-.145L211.9,94.1Z" transform="translate(-57.934 -25.727)" fill="#030303"/></svg>