<svg xmlns="http://www.w3.org/2000/svg" width="184.047" height="130.933" viewBox="0 0 184.047 130.933"><rect width="184.047" height="130.933" fill="none"/><path d="M38.816,86.638a5.7,5.7,0,0,1,11.335,0v.073H38.816Zm10.318,4.142a5.689,5.689,0,0,1-4.65,2.47,5.883,5.883,0,0,1-5.595-4.65v-.073H51.895a5.5,5.5,0,0,0,.073-1.09v-.073a7.52,7.52,0,1,0-.8,3.56l.145-.363H49.352a.232.232,0,0,1-.218.218" transform="translate(-10.115 -21.898)" fill="#030303"/><path d="M66.931,95.013a6.976,6.976,0,0,1-2.4-.436,5.683,5.683,0,0,1-1.889-1.235,5.807,5.807,0,0,1-1.308-1.962,7.484,7.484,0,0,1-.436-2.543V79.9h1.744v8.864a6.12,6.12,0,0,0,.291,1.962,3.872,3.872,0,0,0,.945,1.453,3.609,3.609,0,0,0,1.381.945,4.434,4.434,0,0,0,3.342,0,3.609,3.609,0,0,0,1.381-.945,6.233,6.233,0,0,0,.945-1.453,5.458,5.458,0,0,0,.363-1.889V79.9h1.744v8.937a6.121,6.121,0,0,1-.509,2.543,5.807,5.807,0,0,1-1.308,1.962,4.725,4.725,0,0,1-1.962,1.235,6.294,6.294,0,0,1-2.325.436" transform="translate(-16.65 -21.845)" fill="#030303"/><path d="M81,94.541v-8.5a7.32,7.32,0,0,1,.218-1.816,6,6,0,0,1,1.017-2.18,6.086,6.086,0,0,1,2.252-1.816,10.435,10.435,0,0,1,3.924-.727H88.7v1.816h-.291a9.241,9.241,0,0,0-2.834.436,3.728,3.728,0,0,0-1.671,1.09,3.845,3.845,0,0,0-.8,1.526,6.194,6.194,0,0,0-.218,1.671v8.5Z" transform="translate(-22.146 -21.736)" fill="#030303"/><path d="M125.963,94.554V86.78a4.505,4.505,0,0,0-.291-1.671,4.253,4.253,0,0,0-.727-1.235,3.577,3.577,0,0,0-1.09-.727,4.249,4.249,0,0,0-1.381-.291,2.949,2.949,0,0,0-1.381.291,2.874,2.874,0,0,0-1.09.727,4.5,4.5,0,0,0-.8,1.235,4.263,4.263,0,0,0-.291,1.671v7.775H115.5v-7.92a7.6,7.6,0,0,1,.581-2.834,6.867,6.867,0,0,1,1.526-2.252,6.677,6.677,0,0,1,2.252-1.453,7.084,7.084,0,0,1,5.449,0,5.736,5.736,0,0,1,2.252,1.453,7.719,7.719,0,0,1,1.526,2.252,7.9,7.9,0,0,1,.509,2.906v7.92Z" transform="translate(-31.578 -21.749)" fill="#030303"/><path d="M144.218,82.65a4.513,4.513,0,0,0-4.287,3.2l-.073.145h8.646l-.073-.145a4.278,4.278,0,0,0-4.214-3.2m0,12.352a7.705,7.705,0,1,1,7.484-7.92V87.3a6.25,6.25,0,0,1-.073,1.163v.145h-11.7l.073.145a4.606,4.606,0,0,0,4.287,3.2,4.2,4.2,0,0,0,2.834-1.09l.218-.218h3.633l-.073.218A7.786,7.786,0,0,1,144.218,95" transform="translate(-37.263 -21.761)" fill="#030303"/><path d="M159.1,79.973h0l3.706-.073a60.657,60.657,0,0,0,2.616,11.7,56.46,56.46,0,0,0,2.761-11.7h3.052A63.738,63.738,0,0,0,174,91.6a66.206,66.206,0,0,0,2.616-11.7h3.706v.073a67.625,67.625,0,0,1-3.851,14.6h-4.65a41.848,41.848,0,0,1-2.18-7.266,49.065,49.065,0,0,1-2.107,7.266h-4.65a59.187,59.187,0,0,1-3.778-14.6" transform="translate(-43.498 -21.845)" fill="#030303"/><path d="M190.5,93.969V91.135h.145a14.658,14.658,0,0,0,3.924.581h.8c1.163,0,2.107-.363,2.107-1.6,0-.872-.8-1.308-1.671-1.526l-2.252-.581a3.83,3.83,0,0,1-3.052-4.069c0-2.979,2.47-4.142,5.377-4.142h.727a11.785,11.785,0,0,1,3.56.581v2.761h-.145a13.335,13.335,0,0,0-3.415-.436h-.654c-1.09,0-1.962.218-1.962,1.308,0,.8.654,1.163,1.381,1.381l2.252.654a3.978,3.978,0,0,1,3.342,4.214c0,3.27-2.325,4.5-5.595,4.5h-.8a19.214,19.214,0,0,1-4.069-.8" transform="translate(-52.083 -21.818)" fill="#030303"/><path d="M213.949,94.724a3.124,3.124,0,1,1-3.124-3.124,3.2,3.2,0,0,1,3.124,3.124" transform="translate(-56.786 -25.044)" fill="#030303"/><path d="M99.747,92.869a5.607,5.607,0,1,1,5.232-5.958v.363a5.428,5.428,0,0,1-5.232,5.595m0-13.369a7.7,7.7,0,1,0,7.557,7.847V87.2a7.675,7.675,0,0,0-7.557-7.7h0" transform="translate(-25.125 -21.735)" fill="#030303"/></svg>