<svg xmlns="http://www.w3.org/2000/svg" width="184.047" height="130.933" viewBox="0 0 184.047 130.933"><rect width="184.047" height="130.933" fill="none"/><path d="M171.96,126.7l-.581.872-.073-.073a1.227,1.227,0,0,0-.727-.218c-.581,0-.872.654-.872,1.744v3.342H168.4v-6.394l1.163.8.363-.363a1.2,1.2,0,0,1,1.744-.218.726.726,0,0,1,.291.363v.145Z" transform="translate(-46.041 -34.425)" fill="#030303"/><path d="M150.434,77.243A26.119,26.119,0,0,1,125,96.28a27.655,27.655,0,0,1-6.9-.872V95.19c.581,0,1.163.073,1.744.073a29.308,29.308,0,0,0,16.566-5.086,23.93,23.93,0,0,0,10.1-13.805,25.053,25.053,0,0,0-2.252-18.02,29.291,29.291,0,0,0-12.933-12.933l.073-.218a26.743,26.743,0,0,1,16.058,12.279,24.578,24.578,0,0,1,2.979,19.763Z" transform="translate(-32.289 -12.358)" fill="#030303"/><path d="M161.766,128.18a2.066,2.066,0,0,0-2.325-2.18,2.8,2.8,0,0,0-2.107.872l-.073.073.581.727.073-.073a2.345,2.345,0,0,1,1.526-.581,1.1,1.1,0,0,1,1.09.945l-1.381.436c-1.453.436-2.252,1.163-2.252,2.18a1.8,1.8,0,0,0,1.6,1.962h.218a2.6,2.6,0,0,0,1.6-.8l.291-.291c1.017,1.017,1.017,1.017,1.09,1.017h.073l.073-.145h0C161.766,130.214,161.766,128.18,161.766,128.18Zm-1.889,2.834a1.036,1.036,0,0,1-.872.436.805.805,0,0,1-.727-.872h0c0-.654.436-1.09,1.381-1.381l.872-.291A2.734,2.734,0,0,1,159.877,131.014Z" transform="translate(-42.895 -34.449)" fill="#030303"/><path d="M149.55,126.65a2.136,2.136,0,0,0-1.671-.654,2.915,2.915,0,0,0-2.979,2.834v.291a3.077,3.077,0,0,0,3.2,3.415,3.879,3.879,0,0,0,2.107-.727l.073-.073-.436-.8-.145.073a2.981,2.981,0,0,1-1.6.509,1.9,1.9,0,0,1-1.235-.509,2.091,2.091,0,0,1-.654-1.526h4v-.145A3.3,3.3,0,0,0,149.55,126.65Zm-3.27,1.816a1.513,1.513,0,0,1,1.526-1.453c1.017,0,1.163,1.017,1.235,1.453Z" transform="translate(-39.616 -34.445)" fill="#030303"/><path d="M139.008,131.273H137.7V121.9l1.308.945Z" transform="translate(-37.648 -33.328)" fill="#030303"/><path d="M131.13,131.885a3.7,3.7,0,0,1-1.889.654,3.1,3.1,0,0,1-2.761-1.308,4.42,4.42,0,0,1-.581-1.962,3.164,3.164,0,0,1,3.052-3.27h.291a2.827,2.827,0,0,1,1.671.509l.073.073-.509.8-.073-.073a2.3,2.3,0,0,0-1.163-.291,1.954,1.954,0,0,0-1.962,1.962v.218c0,1.09.509,2.325,1.962,2.325a2.392,2.392,0,0,0,1.381-.436l.145-.073.436.8Z" transform="translate(-34.42 -34.449)" fill="#030303"/><path d="M116.152,126a3.07,3.07,0,0,0-3.052,3.052v.145a3.06,3.06,0,0,0,3.052,3.342,3.157,3.157,0,0,0,3.124-3.342,3.074,3.074,0,0,0-2.906-3.2Zm0,5.522c-1.526,0-1.671-1.6-1.671-2.325,0-1.017.436-2.18,1.671-2.18,1.526,0,1.671,1.671,1.671,2.18.073.727-.145,2.325-1.671,2.325Z" transform="translate(-30.922 -34.449)" fill="#030303"/><path d="M108.684,88.463A13.657,13.657,0,0,1,106.94,77.71a14.84,14.84,0,0,1,6.321-9.01l.145.218c-4.65,4.578-5.377,12.425-1.671,18.165a13.406,13.406,0,0,0,11.408,6.249,14.032,14.032,0,0,0,5.449-1.09l.073.218a14.852,14.852,0,0,1-7.993,2.325,14.222,14.222,0,0,1-11.989-6.321Z" transform="translate(-29.122 -18.783)" fill="#030303"/><path d="M107.579,127.571l-.073-.073a1.228,1.228,0,0,0-.727-.218c-.581,0-.872.654-.872,1.744v3.342H104.6v-6.394l1.163.8.363-.363a1.937,1.937,0,0,1,1.017-.509,1.722,1.722,0,0,1,1.09.654l.073.073Z" transform="translate(-28.598 -34.421)" fill="#030303"/><path d="M97.177,132.594l-1.163-.8a2.807,2.807,0,0,1-1.962.8c-1.453,0-2.252-.8-2.252-2.4v-4h1.308v3.778c0,1.09.436,1.6,1.308,1.6s1.381-.727,1.381-1.744V126.2H97.1C97.177,126.2,97.177,132.594,97.177,132.594Z" transform="translate(-25.098 -34.503)" fill="#030303"/><path d="M123.288,75.318l.073-.218a4.766,4.766,0,0,1-.945,9.446,3.538,3.538,0,0,1-.872-.073,4.738,4.738,0,0,1-3.778-5.595h.218A3.942,3.942,0,0,0,119,81.494a3.731,3.731,0,0,0,5.159,0,3.234,3.234,0,0,0,.872-1.526,3.747,3.747,0,0,0-1.744-4.65Z" transform="translate(-32.173 -20.533)" fill="#030303"/><path d="M131.48,70.885a10.251,10.251,0,0,0-8.574-4.723,10.441,10.441,0,0,0-3.633.727l-.073-.218A10.593,10.593,0,0,1,124.94,65a10.286,10.286,0,0,1,8.719,4.578,9.79,9.79,0,0,1,1.308,7.775,10.46,10.46,0,0,1-4.578,6.467l-.145-.218a10.1,10.1,0,0,0,1.235-12.715Z" transform="translate(-32.59 -17.77)" fill="#030303"/><path d="M91.541,65.125A21.656,21.656,0,0,1,111.087,52.7a20.735,20.735,0,0,1,9.082,2.034l-.073.218a22.231,22.231,0,0,0-5.377-.654c-8.574,0-16.421,4.8-19.836,12.207a22.432,22.432,0,0,0,7.266,27.1l-.145.218A21.645,21.645,0,0,1,91.541,65.125Z" transform="translate(-24.476 -14.408)" fill="#030303"/><path d="M84.723,126.726A2.254,2.254,0,0,0,82.979,126,2.915,2.915,0,0,0,80,128.833v.291a3.094,3.094,0,0,0,3.27,3.415,3.472,3.472,0,0,0,2.034-.727l.073-.073-.436-.8-.145.073a2.943,2.943,0,0,1-1.526.509,1.9,1.9,0,0,1-1.235-.509,2.422,2.422,0,0,1-.654-1.526h4v-.145A3.081,3.081,0,0,0,84.723,126.726Zm-3.27,1.744a1.573,1.573,0,0,1,1.526-1.453c.727,0,1.163.581,1.235,1.453Z" transform="translate(-21.872 -34.448)" fill="#030303"/></svg>