<svg xmlns="http://www.w3.org/2000/svg" width="184.047" height="130.933" viewBox="0 0 184.047 130.933"><rect width="184.047" height="130.933" fill="none"/><rect width="13.006" height="2.688" transform="translate(85.52 86.174)" fill="#030303"/><rect width="19.473" height="2.688" transform="translate(82.251 90.897)" fill="#030303"/><rect width="29.282" height="2.688" transform="translate(77.383 95.402)" fill="#030303"/><path d="M116.94,104.227A23.108,23.108,0,0,1,94.124,84.9H91a26.254,26.254,0,0,0,51.952,0h-3.124a23.241,23.241,0,0,1-22.888,19.327" transform="translate(-24.88 -23.212)" fill="#030303"/><path d="M127.969,52.684c0,3.124-.945,4.578-2.034,4.578s-2.034-1.453-2.034-4.578a16.047,16.047,0,0,1,2.034-7.484,16.7,16.7,0,0,1,2.034,7.484" transform="translate(-33.875 -12.358)" fill="#030303"/><path d="M94.669,71.884c0,3.124-.872,4.578-2.034,4.578S90.6,75.008,90.6,71.884A16.959,16.959,0,0,1,92.634,64.4a14.824,14.824,0,0,1,2.034,7.484" transform="translate(-24.77 -17.607)" fill="#030303"/><path d="M161.169,71.784c0,3.124-.945,4.578-2.034,4.578s-2.034-1.453-2.034-4.578a16.959,16.959,0,0,1,2.034-7.484,15.025,15.025,0,0,1,2.034,7.484" transform="translate(-42.952 -17.58)" fill="#030303"/><path d="M122.852,86.845H124.3c2.252,0,2.688-1.235,2.688-5.014V74.275c0-3.27-.363-4.36-2.979-4.36h-1.163ZM119.8,67.3h4.941c4.941,0,5.377,1.671,5.377,8.065V81.9c0,5.667-1.017,7.411-5.813,7.411h-4.432Z" transform="translate(-32.754 -18.4)" fill="#030303"/><path d="M137.4,72.913c0-3.124,1.017-5.813,5.159-5.813,3.052,0,4.432,1.526,4.432,4v2.18h-2.906V71.75c0-1.453-.509-2.325-1.744-2.325-1.6,0-1.889,1.163-1.889,3.778V84.03c0,2.616.8,3.052,1.816,3.052,1.163,0,1.889-.8,1.889-2.616V83.012h2.906v2.47c0,2.325-.945,4.069-4.5,4.069-3.851,0-5.086-2.034-5.086-5.449Z" transform="translate(-37.566 -18.345)" fill="#030303"/><path d="M112.064,67.3h-3.052V84.157c0,2.616-.8,3.052-1.816,3.052-1.163,0-1.889-.8-1.889-2.616V83.067H102.4v2.47c0,2.325.945,4.142,4.5,4.142,3.851,0,5.086-2.034,5.086-5.449l.073-16.93Z" transform="translate(-27.996 -18.4)" fill="#030303"/></svg>