<svg xmlns="http://www.w3.org/2000/svg" width="184.047" height="130.933" viewBox="0 0 184.047 130.933"><rect width="184.047" height="130.933" fill="none"/><path d="M133.417,91.14a2.291,2.291,0,0,0,4.578,0V83.874h3.924v8.065c0,2.688-2.834,4.868-6.321,4.868s-6.321-2.18-6.321-4.868V83.947h4l.145,7.193ZM151,96.371h4V75.3h-4Zm-6.83,0h4V75.3h-4ZM70.639,79.66H68.387V96.371H64.1V76.245h7.411a5.924,5.924,0,0,1,6.031,5.813,5.86,5.86,0,0,1-4.65,5.885l5.885,8.429H73.764l-4.287-6.539V84.964h1.017A2.764,2.764,0,0,0,73.4,82.348a2.7,2.7,0,0,0-2.688-2.761.071.071,0,0,1-.073.073" transform="translate(-17.525 -20.587)" fill="#030303" fill-rule="evenodd"/><path d="M88.094,88.669a2.475,2.475,0,1,1,4.941-.291v.291Zm8.864,2.252c0-.291.073-.509.073-.872.073-4.36-2.834-6.757-6.467-6.757a6.7,6.7,0,1,0,6.1,10.172L93.4,91.939a2.852,2.852,0,0,1-2.543,1.526,2.609,2.609,0,0,1-2.761-2.47v-.145c0,.073,8.864.073,8.864.073Zm9.082,2.4a3.186,3.186,0,0,1-2.979-3.2,3.074,3.074,0,0,1,2.906-3.2h0a3.186,3.186,0,0,1,2.979,3.2,3.026,3.026,0,0,1-2.906,3.2Zm6.9,3.052V75.3h-4v9.954a5.673,5.673,0,0,0-4-1.671,6.561,6.561,0,0,0,0,13.079,5.786,5.786,0,0,0,4.069-1.744V96.3Zm13.66-3.488h-3.851V79.66h2.616a2.2,2.2,0,0,1,2.18,2.252,2.108,2.108,0,0,1-2.034,2.18h-1.526v3.633h2.543A2.45,2.45,0,0,1,129,90.2v.073h0a2.429,2.429,0,0,1-2.4,2.616h0m3.342-7.411a5.3,5.3,0,0,0,1.744-3.851,5.233,5.233,0,0,0-1.453-3.633c-.945-1.09-2.688-1.6-4.941-1.6h-6.83V96.517H127.4a6.046,6.046,0,0,0,6.176-5.74,5.442,5.442,0,0,0-3.633-5.3" transform="translate(-22.991 -20.587)" fill="#030303" fill-rule="evenodd"/></svg>