<svg xmlns="http://www.w3.org/2000/svg" width="184.047" height="130.933" viewBox="0 0 184.047 130.933"><rect width="184.047" height="130.933" fill="none"/><path d="M48.59,78.654a4.8,4.8,0,0,1,1.962.436,1.827,1.827,0,0,1,.727,1.671v9.082a5.66,5.66,0,0,1-1.308,4,5.4,5.4,0,0,1-3.924,1.235A4.179,4.179,0,0,1,42.7,93.767a6.421,6.421,0,0,1-1.09-4.142v-7.92a6.209,6.209,0,0,1,.291-2.325c.291-.509.872-.8,1.889-.8V78H37.4v.581a2.62,2.62,0,0,1,1.453.436,1.158,1.158,0,0,1,.291.872v9.736a5.965,5.965,0,0,0,1.526,4.432Q42.414,95.8,46.119,95.8a6.144,6.144,0,0,0,4.142-1.308,5.407,5.407,0,0,0,1.671-4.432v-9.3a2.018,2.018,0,0,1,1.889-2.107h.291V78H48.662v.654Z" transform="translate(-10.225 -21.325)" fill="#030303"/><path d="M75.823,78.681a2.195,2.195,0,0,1,1.816.654A2.553,2.553,0,0,1,78,80.788V91.4L65.651,78.1H61.8v.581a1.973,1.973,0,0,1,1.235.581,5.463,5.463,0,0,1,1.09,1.163V93.141a1.668,1.668,0,0,1-.291,1.017,1.9,1.9,0,0,1-1.235.363h-.581V95.1h5.231v-.581a4.238,4.238,0,0,1-1.671-.218,1.233,1.233,0,0,1-.654-1.163V81.152l13.224,14.1h.581V81.006a2.745,2.745,0,0,1,.291-1.526,2.24,2.24,0,0,1,2.034-.8V78.1H75.823Z" transform="translate(-16.896 -21.353)" fill="#030303"/><path d="M153.606,78.681V78.1h-4.65v.581a3,3,0,0,1,1.6.291,1.1,1.1,0,0,1,.509,1.017,4.906,4.906,0,0,1-.145,1.017l-3.124,10.463-3.706-10.681a3.647,3.647,0,0,1-.145-.872,1.059,1.059,0,0,1,.509-.945,3.91,3.91,0,0,1,1.6-.291V78.1h-7.193v.581a2.686,2.686,0,0,1,1.526.436,3.871,3.871,0,0,1,.945,1.453l.945,2.325-3.124,8.719-4.214-11.408a1.465,1.465,0,0,1-.218-.8.553.553,0,0,1,.436-.581,5.44,5.44,0,0,1,1.526-.145V78.1H130.5v.581a1.425,1.425,0,0,1,1.381.872l.8,2.034,5.231,14.1h.581l4-11.844,4.069,11.771h.581l4.5-14.677c.581-1.526,1.235-2.325,1.962-2.252" transform="translate(-35.679 -21.353)" fill="#030303"/><path d="M166.267,95.364a2.564,2.564,0,0,1-.945.581,3.012,3.012,0,0,1-1.163.218,2.029,2.029,0,0,1-1.308-.436,1.412,1.412,0,0,1-.581-1.163,1.911,1.911,0,0,1,1.017-1.526,13.359,13.359,0,0,1,2.906-1.381l.073,3.706Zm2.906.872a.6.6,0,0,1-.436.291c-.363,0-.509-.363-.509-1.163V89.043a2.737,2.737,0,0,0-.581-1.962,3.124,3.124,0,0,0-1.962-.581,6.646,6.646,0,0,0-3.27,1.017c-1.235.654-1.816,1.381-1.816,2.107a1.228,1.228,0,0,0,.218.727.661.661,0,0,0,.581.291,1.269,1.269,0,0,0,.872-.291,1.963,1.963,0,0,0,.509-1.526,1.42,1.42,0,0,1,.509-1.09,3.375,3.375,0,0,1,1.671-.436,1.412,1.412,0,0,1,.945.218,1.341,1.341,0,0,1,.363.872v2.688a26.275,26.275,0,0,0-2.543.945c-1.889.872-2.906,1.962-2.906,3.27a1.873,1.873,0,0,0,.945,1.816,3.259,3.259,0,0,0,1.381.363,3.193,3.193,0,0,0,1.6-.509,5.819,5.819,0,0,0,1.526-1.09,3.041,3.041,0,0,0,.8,1.308,1.65,1.65,0,0,0,1.163.436,1.517,1.517,0,0,0,1.163-.581,2.345,2.345,0,0,0,.581-1.526h-.581c.073.363,0,.581-.218.727" transform="translate(-43.909 -23.649)" fill="#030303"/><path d="M181.548,94.854l-1.017.654a2.05,2.05,0,0,1-1.09.291,1.7,1.7,0,0,1-1.235-.509,1.993,1.993,0,0,1-.436-1.526v-6.1h3.124l.581-1.381H177.77V84.1l-3.27,3.56h1.381v6.757a2.361,2.361,0,0,0,.8,2.034,2.392,2.392,0,0,0,1.816.581,3.52,3.52,0,0,0,1.889-.509,2.681,2.681,0,0,0,1.308-1.235c0-.218,0-.363-.145-.436" transform="translate(-47.709 -22.993)" fill="#030303"/><path d="M190.374,86.8a2.182,2.182,0,0,1,2.034,1.526c.436,1.017.727,1.526,1.017,1.526a1.268,1.268,0,0,0,.872-.291.933.933,0,0,0,.291-.727,2.2,2.2,0,0,0-1.381-1.962A5.968,5.968,0,0,0,190.084,86a4.59,4.59,0,0,0-3.851,1.816,7.024,7.024,0,0,0-1.235,4,6.15,6.15,0,0,0,1.308,4,4.547,4.547,0,0,0,3.778,1.816,4.868,4.868,0,0,0,2.252-.509,5.742,5.742,0,0,0,2.252-3.124l-.363-.218a3.452,3.452,0,0,1-1.453,1.744,3.336,3.336,0,0,1-2.034.581,3.147,3.147,0,0,1-2.47-1.09,4.833,4.833,0,0,1-1.09-3.415,5.755,5.755,0,0,1,1.09-3.924,2.8,2.8,0,0,1,2.107-.872" transform="translate(-50.577 -23.511)" fill="#030303"/><path d="M210.181,94.076a2.332,2.332,0,0,1-.145-1.235V87.246a3.134,3.134,0,0,0-1.017-2.325,3.5,3.5,0,0,0-2.325-.945,3.955,3.955,0,0,0-1.962.509,6.642,6.642,0,0,0-1.744,1.453V77.8l-3.2,1.163v.363a2.548,2.548,0,0,1,1.017.436,2.011,2.011,0,0,1,.218.945V92.623a2.469,2.469,0,0,1-.218,1.453c-.145.218-.581.291-1.308.291v.581h5.086v-.581A1.871,1.871,0,0,1,203.278,94a2.745,2.745,0,0,1-.291-1.526V86.664a7.6,7.6,0,0,1,1.381-1.235,2.719,2.719,0,0,1,1.308-.363,2.4,2.4,0,0,1,1.744.872,2.9,2.9,0,0,1,.727,1.889v4.941a3.291,3.291,0,0,1-.218,1.163c-.145.291-.654.363-1.381.363v.581h5.086v-.581c-.8.073-1.235,0-1.453-.218" transform="translate(-54.544 -21.271)" fill="#030303"/><path d="M107.679,90.333c.291,0,.073.363.363.363.145-.291,0-.291.363-.291a.452.452,0,0,0,.436-.291c.073-.218-.291-.436-.436-.436-.291-.073-.509.145-.581-.145s.073-.436,0-.581-.145-.436,0-.509.436.145.581-.291c.073-.291-.145-.291-.291-.436-.291-.291.218-.291.291-.581.145,0,.291-.073.218-.291s-.218-.073-.291-.145h0a1.821,1.821,0,0,0-.509.291c-.145.145-.218.363-.436.436s-.436-.073-.727-.073H106.3c-.073,0-.145-.145-.291-.145-.291,0-.218.291-.291.436a.876.876,0,0,1-.363.363.876.876,0,0,0-.363.363c-.073.145-.291.436-.291.581.073.145.218.291.291.436a.437.437,0,0,0,.291.073c.073.073.073.145.218.145,0,.145-.073.436,0,.581.145.291.218,0,.218-.145a.218.218,0,0,1,.363-.145c.145.145.073.145.073.291s.145.073.218.145.727.654.945.436.073-.363.363-.436" transform="translate(-28.625 -23.704)" fill="#030303"/><path d="M104.432,94.152c-.436-.073-.363-.727-.436-1.017-.073-.218-.218-.218-.291-.291a.544.544,0,0,1-.073-.363v-.654c0-.218-.218-.291-.436-.363s-.218,0-.363-.145-.145-.218-.291-.218-.291.218-.436.436c-.073.073-.145.145-.145.218s-.145.218-.145.291c-.073.145.145.509-.145.509-.145,0-.145-.145-.218-.218a.33.33,0,0,0-.363,0c-.073,0-.073.073-.218.145h-.363c-.218,0-.145,0-.291.145-.073.073-.145.218-.218.291h.073c0,.145.145.145.218.291s-.073.291.218.218c.145,0,.218-.145.436-.073a.567.567,0,0,1,.291.291c.145.218.073.291.291.436.145.073.291.073.436.145.363.145.073.581.509.654,0,.291,0,.218.218.363s.218.218.581.218a1.806,1.806,0,0,0,.581.073c.291-.073.218-.218.363-.436a.417.417,0,0,1,.509-.145h.073c.073.073.073.218.218.145s.073-.291.073-.291c.073-.218.145-.291,0-.509s-.363-.145-.654-.145" transform="translate(-27.34 -24.907)" fill="#030303"/><path d="M115.193,89.623c0-.218-.509-.145-.654-.218s-.145-.436-.145-.581,0-.363.218-.436.363-.145.363-.363a.679.679,0,0,0-.363-.509,4.633,4.633,0,0,0-.509-.145c-.218-.073-.436-.363-.654-.509s-.291.436-.581.291a1.171,1.171,0,0,0-.291-.509,2.419,2.419,0,0,0-.436-.218l-.218-.218c-.145-.218-.218-.291-.509-.218a.518.518,0,0,0-.436.218c-.291.363.073.872.218,1.163.073.073.073.145.145.291s.145.073.145.145v.145a1.05,1.05,0,0,1,.145.509c0,.073-.145.073-.145.218s.073.145.145.291a1.418,1.418,0,0,1-.073.509.783.783,0,0,1-.145.581c-.145.145-.218.145-.218.363a.267.267,0,0,0-.218.073c0,.218-.218.145-.363.218s-.073.145-.073.218-.145,0-.145.145c-.073.291.509.363.436.654.145,0,.218-.073.291-.073a.437.437,0,0,1,.291-.073,1.08,1.08,0,0,0,.654-.145.9.9,0,0,1,.581.291c.073.073.073.145.218.145h.291c.073,0,.218.145.291.145s.145-.145.218-.145c.218-.073.291.291.581.145a.565.565,0,0,0,.145-.581c-.073-.145-.291-.291-.363-.436a1.085,1.085,0,0,1-.218-.509c0-.218.291-.291.363-.436.145.218.218.291.436.145s.145-.145.218-.145a.744.744,0,0,0,.363-.436" transform="translate(-30.181 -23.502)" fill="#030303"/><path d="M113.706,96.456c0-.145.145-.145.145-.218a.437.437,0,0,0-.073-.291c-.073-.073,0-.145,0-.291s-.145-.073-.145-.218v-.363c0-.291,0-.145-.145-.291a1.52,1.52,0,0,0-.436-.291c-.218-.073-.436-.073-.581-.218s-.145-.436-.363-.291-.073.509-.509.291c-.218-.073-.218-.218-.509-.218-.145,0-.436.073-.581,0h-.073a1.048,1.048,0,0,0-.945.218l-.218.218c-.073.073-.218,0-.363.073a.353.353,0,0,0-.218.436c.073.218.145.145.145.218a.437.437,0,0,0,.073.291,1.46,1.46,0,0,0,.291.581,1.172,1.172,0,0,0,.654.218c.218,0,.291.218.509.291a3.147,3.147,0,0,1,.363-.073c0-.291,0-.291.291-.363.073,0,.218-.145.291,0s-.073.145-.073.218-.145.073,0,.145.145,0,.145,0a.225.225,0,0,0,.073.145l.218.218c.073.073.218.073.291.145.218.145,0,.291.073.509s.218.436.363.363.145-.145.218-.218.218-.073.291-.145c.218-.073.436-.073.581-.218s.145-.291.363-.363c0-.073.073-.145.073-.218s.073-.073,0-.145-.145,0-.218-.145" transform="translate(-29.712 -25.685)" fill="#030303"/><path d="M117.227,95.359c-.073-.145-.363,0-.291-.291h0c-.073-.073-.363-.145-.436,0v.509a.779.779,0,0,0,.145.436c.073.073.145.073.218.145s0,.145.073.291.218.073.363-.073c.073-.073.073-.145.145-.218,0-.145-.073-.145-.073-.218a.977.977,0,0,0-.145-.581" transform="translate(-31.851 -25.969)" fill="#030303"/><path d="M117.091,87.6a1.588,1.588,0,0,1,.218.363h.073c.073-.218.145-.654-.073-.8-.145-.073-.145-.145-.291,0a.359.359,0,0,1-.073.218c-.073.073-.145,0-.145.073s.291.073.291.145" transform="translate(-31.933 -23.809)" fill="#030303"/><path d="M114.636,83.385c-.218-.073-.363-.073-.436.218a.655.655,0,0,0,.073.363c.073.073.073.145.145.218a2.122,2.122,0,0,0,.654.145c0-.145.218-.363,0-.436h0a1.479,1.479,0,0,0-.436-.509" transform="translate(-31.223 -22.787)" fill="#030303"/><path d="M116.171,85.436c-.073-.073-.073-.145-.145-.218s-.218-.073-.218-.218h-.073c-.145.073-.218.145-.145.291a.567.567,0,0,0,.291.291c.145.073.436.291.654.218-.145-.363-.145-.218-.363-.363" transform="translate(-31.595 -23.239)" fill="#030303"/><path d="M113.648,81.415c0,.073.145.073.145.145s.073.145.145.218.145.073.218.145,0,.145.073.218l.218.218a.267.267,0,0,1,.218.073c.073.073,0,.145.073.218s.145.073.218.145.291,0,.363.218c-.073,0,0,.073,0,.073.291,0,.218.218.291.363s.145.073.218.145,0,.218,0,.218.145.145.145.218v.509l.073.291c.145.218.291.073.291-.073s0-.436.218-.436.218.291.363.363a2.581,2.581,0,0,0,.654.291c.145-.073.145-.073.145-.218a.491.491,0,0,0-.291-.436c-.145-.073-.145-.291-.291-.509,0-.073-.073-.073-.145-.145s0-.073,0-.145a.377.377,0,0,1-.145-.291l-.218-.218c-.073-.073,0-.145-.073-.291s-.145-.145-.145-.291a1.582,1.582,0,0,0-.363-.581l-.145-.145a.1.1,0,0,1,0-.145,2.9,2.9,0,0,1-.291-.218,21625.2,21625.2,0,0,1-.581-.436c-.073-.073-.218-.073-.291-.145a1.026,1.026,0,0,0-.654-.073c-.218,0-.218.073-.436.218s-.145.218,0,.509" transform="translate(-31.034 -22.052)" fill="#030303"/><path d="M112.29,86.528a7.716,7.716,0,0,1-5.595,7.411,14.1,14.1,0,0,1-2.47.145c-.727-.073-1.09-.073-1.744-.145a7.705,7.705,0,0,1-.654-14.6,23.4,23.4,0,0,1,5.522,0,7.642,7.642,0,0,1,4.941,7.193m6.539-2.4s.363,0-.073-.727l-.073-.145c-2.18-3.488-7.7-5.958-14.1-5.958s-11.916,2.47-14.1,5.958l-.073.145c-.436.727-.073.727-.073.727.363.073,1.163-.654,1.163-.654a17.339,17.339,0,0,1,8.719-3.924A8.169,8.169,0,0,0,97.54,90.815a7.816,7.816,0,0,0,3.052,2.906,16.965,16.965,0,0,1-9.082-4s-.8-.8-1.163-.727c0,0-.363,0,.073.727l.073.145c2.18,3.488,7.775,5.958,14.1,5.958s11.916-2.47,14.1-5.958l.073-.145c.436-.727.073-.727.073-.727-.363-.073-1.163.727-1.163.727a17.222,17.222,0,0,1-9.082,4,8.244,8.244,0,0,0,3.27-11.19,7.816,7.816,0,0,0-2.906-3.052,17.339,17.339,0,0,1,8.719,3.924c-.073.073.8.8,1.163.727" transform="translate(-24.662 -21.134)" fill="#030303"/></svg>