<svg xmlns="http://www.w3.org/2000/svg" width="184.047" height="130.933" viewBox="0 0 184.047 130.933"><rect width="184.047" height="130.933" fill="none"/><path d="M68.868,80.168a3.859,3.859,0,0,1-2.543-2.834,24.327,24.327,0,0,1-.363-5.159V67.089c0-.727-.145-1.09-.8-1.09H64.145C64,66,64,65.927,64,65.781v-.436c0-.145,0-.145.218-.145s1.235.073,2.906.073,2.688-.073,2.906-.073.218.073.218.145v.581c0,.145,0,.145-.145.145H69.086a1.019,1.019,0,0,0-1.017.872c0,.218-.073,1.671-.073,2.761v1.381c0,1.163.073,3.851.145,4.5a5.657,5.657,0,0,0,.654,2.688A4.015,4.015,0,0,0,72.211,79.8a4.371,4.371,0,0,0,3.2-1.163,5.458,5.458,0,0,0,1.09-3.778v-4.5a31.983,31.983,0,0,0-.145-3.415A.962.962,0,0,0,75.408,66h-.945c-.145,0-.145-.073-.145-.145v-.509c0-.145,0-.145.145-.145s1.163.073,2.616.073,2.18-.073,2.325-.073.218.073.218.145v.436c0,.145,0,.218-.145.218H78.6c-.8,0-.872.581-.945.872s-.073,3.2-.073,3.56-.073,4-.073,4.868A5.361,5.361,0,0,1,75.7,79.369a5.66,5.66,0,0,1-4,1.308A7.792,7.792,0,0,1,68.868,80.168Z" transform="translate(-17.498 -17.826)" fill="#030303"/><path d="M86.653,79.474c-.218-.218-.363-.291-.509-.291s-.218.145-.363.363-.218.218-.363.218-.218-.073-.218-.363c.073-.509.291-3.2.363-3.851,0-.145.073-.145.145-.145H86c.073,0,.145,0,.145.145a4.278,4.278,0,0,0,.727,2.47,3.473,3.473,0,0,0,2.979,1.6,2.75,2.75,0,0,0,2.906-2.543v-.145c0-2.18-1.6-2.979-3.27-3.56a8.856,8.856,0,0,1-3.124-1.744,4.191,4.191,0,0,1,.291-5.813A4.044,4.044,0,0,1,89.632,64.8a5.576,5.576,0,0,1,2.47.509c.218.145.291.073.436,0l.291-.218a.377.377,0,0,1,.291-.145c.073,0,.145.145.145.363,0,.727.291,2.906.291,3.415,0,.073,0,.145-.073.145l-.291.073c-.073,0-.073,0-.145-.073h0a4.964,4.964,0,0,0-1.308-2.325,2.774,2.774,0,0,0-2.325-.872,2.424,2.424,0,0,0-2.543,2.252v.218a2.79,2.79,0,0,0,.654,1.816,7.718,7.718,0,0,0,2.4,1.308c1.453.436,2.688.8,3.415,1.744a4.247,4.247,0,0,1,.945,2.906c0,2.47-1.526,4.65-4.36,4.65A5.521,5.521,0,0,1,86.653,79.474Z" transform="translate(-23.294 -17.713)" fill="#030303"/><path d="M100.651,78.605A8.271,8.271,0,0,1,98.4,72.647a8.147,8.147,0,0,1,2.18-5.667,7.6,7.6,0,0,1,5.3-2.18,8.814,8.814,0,0,1,4.287,1.163c.291.145.363.145.436,0l.145-.581c.073-.145.073-.145.291-.145s.218.073.218.363.436,3.488.509,4.142c0,.145,0,.218-.073.218l-.291.073c-.145,0-.145,0-.218-.145a7.663,7.663,0,0,0-1.671-2.616,4.741,4.741,0,0,0-3.706-1.6c-3.778,0-5.3,3.415-5.3,6.467a8.3,8.3,0,0,0,2.034,5.449,4.893,4.893,0,0,0,4.069,1.816,6.371,6.371,0,0,0,5.231-2.688c.073-.145.145-.145.145-.073l.291.218c.073.073.073.073.073.218a7.567,7.567,0,0,1-6.321,3.56A8.114,8.114,0,0,1,100.651,78.605Z" transform="translate(-26.901 -17.717)" fill="#030303"/><path d="M123.353,79.474c-.218-.218-.363-.291-.509-.291s-.218.145-.363.363-.218.218-.363.218-.218-.073-.218-.363c.073-.509.291-3.2.363-3.851,0-.145.073-.145.145-.145h.291c.073,0,.145,0,.145.145a4.35,4.35,0,0,0,.8,2.47,3.473,3.473,0,0,0,2.979,1.6,2.75,2.75,0,0,0,2.906-2.543v-.145c0-2.18-1.6-2.979-3.27-3.56a8.856,8.856,0,0,1-3.124-1.744,4.1,4.1,0,0,1,.218-5.813,4.044,4.044,0,0,1,2.979-1.017,5.576,5.576,0,0,1,2.47.509c.218.145.291.073.436,0l.291-.218a.377.377,0,0,1,.291-.145c.073,0,.145.145.145.363,0,.727.291,2.906.291,3.415,0,.073,0,.145-.073.145l-.291.073c-.073,0-.073,0-.145-.073h0a5.2,5.2,0,0,0-1.308-2.4,2.774,2.774,0,0,0-2.325-.872,2.375,2.375,0,0,0-2.543,2.252v.291a2.791,2.791,0,0,0,.654,1.816,7.718,7.718,0,0,0,2.4,1.308,6.643,6.643,0,0,1,3.415,1.744,4.247,4.247,0,0,1,.945,2.906c0,2.47-1.526,4.65-4.36,4.65A5.364,5.364,0,0,1,123.353,79.474Z" transform="translate(-33.328 -17.713)" fill="#030303"/><path d="M136.4,68.678c0-1.308-.291-1.526-1.017-1.816l-.363-.145c-.145-.073-.145-.073-.145-.145v-.145c0-.073.073-.145.291-.218l2.18-1.163a1.05,1.05,0,0,1,.509-.145c.145,0,.218.145.145.509s-.073,4.65-.073,5.74v1.381H138a4.1,4.1,0,0,1,2.906-1.381,2.91,2.91,0,0,1,2.107.872c.945.872.872,1.962.872,3.124V76.38c0,1.163.073,2.47.073,2.906,0,.291.363.291.8.291h.363a.193.193,0,0,1,.218.218v.291c0,.145-.073.291-.145.291a13.721,13.721,0,0,0-2.034-.145c-1.017,0-1.816.073-2.034.073s-.218-.073-.218-.218v-.363c0-.145,0-.145.145-.145h.509c.363,0,.8-.073.8-.436V75.29c0-1.163-.073-2.034-.727-2.616a1.985,1.985,0,0,0-1.381-.581,2.6,2.6,0,0,0-1.962.872,2.547,2.547,0,0,0-.436,1.017v4.65c0,.654.073.872.436.872h.654c.145,0,.218.073.218.145v.363c0,.145-.073.218-.145.218s-1.017-.073-2.034-.073-1.889.073-2.034.073-.145-.073-.145-.218V79.65c0-.145.073-.145.291-.145h.436c.363,0,.654-.073.727-.363.073-.436.073-2.761.073-4.142Z" transform="translate(-36.855 -17.744)" fill="#030303"/><path d="M150.855,81.42a4.726,4.726,0,0,1,.436-6.685l.218-.218a4.514,4.514,0,0,1,2.834-1.017,4.239,4.239,0,0,1,2.979,1.235,4.727,4.727,0,0,1-3.27,8.138,4.667,4.667,0,0,1-3.2-1.453ZM157.031,78c0-2.325-1.744-3.851-2.834-3.851a2.029,2.029,0,0,0-1.6.654,4.356,4.356,0,0,0-1.163,3.342,4.737,4.737,0,0,0,.8,2.979,2.232,2.232,0,0,0,2.107,1.09C156.014,82.219,157.031,80.257,157.031,78Z" transform="translate(-40.921 -20.095)" fill="#030303"/><path d="M169.021,80.134c0,1.235.291,1.6.654,1.6a1.291,1.291,0,0,0,.727-.291c.073-.073.145-.145.218-.073l.218.145c.073.073.073.145,0,.363a1.665,1.665,0,0,1-1.671,1.017,1.573,1.573,0,0,1-1.526-1.453h-.073a4.919,4.919,0,0,1-2.107,1.308,3.6,3.6,0,0,1-1.235.145c-.509,0-1.308-.436-1.308-1.744,0-.945.436-1.816,2.107-2.543a12.423,12.423,0,0,0,2.4-1.235V76.065a2.132,2.132,0,0,0-.291-1.163,1.751,1.751,0,0,0-1.308-.509,2.392,2.392,0,0,0-1.381.436c-.291.291-.073.581-.073.945,0,.727-.291,1.235-1.163,1.235-.363,0-.509-.218-.509-.654a2.8,2.8,0,0,1,1.453-2.034,4.744,4.744,0,0,1,2.616-.727,1.994,1.994,0,0,1,1.671.581,1.686,1.686,0,0,1,.436,1.526l.145,4.432Zm-1.6-2.18c-.8.581-2.834,1.017-2.834,2.761a1.058,1.058,0,0,0,.945,1.163h.218c.581,0,1.744-.727,1.744-1.308V77.954Z" transform="translate(-44.483 -20.117)" fill="#030303"/><path d="M176.326,68.678c0-1.308-.291-1.526-1.017-1.816l-.363-.145c-.145-.073-.145-.073-.145-.145v-.145c0-.073.073-.145.291-.218l2.18-1.163a1.05,1.05,0,0,1,.509-.145c.145,0,.218.145.145.509s-.073,4.65-.073,5.74v1.381h.073a4.1,4.1,0,0,1,2.906-1.381,2.8,2.8,0,0,1,2.107.872c.945.872.945,1.962.945,3.124V76.38c0,1.163.073,2.47.073,2.906,0,.291.363.291.8.291h.363a.193.193,0,0,1,.218.218v.291c0,.145-.073.291-.145.291s-.8-.073-2.034-.073c-1.017,0-1.816.073-2.034.073s-.218-.073-.218-.218V79.8c0-.145,0-.145.145-.145h.509c.363,0,.8-.073.8-.436V75.363c0-1.163-.073-2.034-.727-2.616a1.985,1.985,0,0,0-1.381-.581,2.6,2.6,0,0,0-1.962.872,1.826,1.826,0,0,0-.436,1.017v4.65c0,.654.073.872.436.872h.654c.145,0,.218.073.218.145v.363c0,.145-.073.218-.145.218s-1.017-.073-2.034-.073-1.889.073-2.034.073-.145-.073-.145-.218v-.363c0-.145.073-.145.291-.145h.436c.363,0,.654-.073.727-.363.073-.436.073-2.761.073-4.142Z" transform="translate(-47.791 -17.744)" fill="#030303"/><path d="M67.052,99.767V95.553c0-.436-.291-.581-.872-.581H64.945a.156.156,0,0,1-.145-.145v-.581a.156.156,0,0,1,.145-.145h.872c.509,0,1.235.073,2.252.073.363,0,7.847,0,8.138-.073.073.363.727,3.2.872,3.778,0,.073,0,.145-.073.145l-.363.145c-.073,0-.145,0-.145-.145-.436-.654-.872-1.308-1.381-1.962a2.561,2.561,0,0,0-1.453-1.017c-.509-.145-3.924-.218-4.578-.218v6.9c.291,0,2.543-.073,2.761-.073.436-.073.727-.291.945-.945.073-.218.145-.654.218-1.017a.156.156,0,0,1,.145-.145h.436a.156.156,0,0,1,.145.145c-.073.363-.073,2.107-.073,2.4a16.229,16.229,0,0,0,.145,2.18c0,.145-.073.145-.145.145l-.436.073c-.145,0-.145-.073-.145-.145a8.779,8.779,0,0,0-.218-1.017.929.929,0,0,0-.872-.8c-.945-.073-1.962-.145-2.906-.145v5.3c0,.581.145.654.8.654H70.9c.145,0,.218.073.218.145V109c0,.145-.073.145-.145.145s-1.09-.073-2.906-.073c-1.671,0-2.47.073-2.761.073a.156.156,0,0,1-.145-.145v-.581c0-.073.073-.073.145-.073h.945c.581,0,.727-.073.727-.509s.073-3.124.073-6.757Z" transform="translate(-17.717 -25.727)" fill="#030303"/><path d="M80.555,110.32a4.726,4.726,0,0,1,.436-6.685l.218-.218a4.514,4.514,0,0,1,2.834-1.017,4.239,4.239,0,0,1,2.979,1.235,4.772,4.772,0,0,1,1.453,3.488,4.847,4.847,0,0,1-4.723,4.65A4.147,4.147,0,0,1,80.555,110.32Zm6.1-3.415c0-2.325-1.744-3.851-2.834-3.851a2.029,2.029,0,0,0-1.6.654,4.356,4.356,0,0,0-1.163,3.342,4.737,4.737,0,0,0,.8,2.979,2.232,2.232,0,0,0,2.107,1.09c1.671,0,2.761-1.962,2.688-4.214Z" transform="translate(-21.701 -27.996)" fill="#030303"/><path d="M100.774,107.278a22.014,22.014,0,0,0,.073,2.47c.073.654.291.727.581.727a2.472,2.472,0,0,0,.727-.073c.145-.073.218,0,.218.073l.073.291c0,.145,0,.145-.145.218l-2.252.727a.922.922,0,0,1-.436.073q-.109,0-.218-.218l-.145-1.235h-.073a3.793,3.793,0,0,1-2.906,1.453,2.234,2.234,0,0,1-2.034-.872c-.872-1.163-.8-1.816-.8-4.142V104.3c0-.581-.291-.727-.8-.8-.363,0-.436-.073-.436-.145v-.436c0-.145.073-.145.218-.145h2.4a.193.193,0,0,1,.218.218v.073c0,.218-.073,1.163-.073,2.47v1.526a5.626,5.626,0,0,0,.436,3.2,1.733,1.733,0,0,0,1.671.8,2.956,2.956,0,0,0,1.816-1.09.825.825,0,0,0,.218-.581V104.3c-.073-.581-.363-.727-.945-.727-.363,0-.436-.073-.436-.145v-.509a.193.193,0,0,1,.218-.218h2.543c.073,0,.218.073.218.145v.073a18.52,18.52,0,0,0-.145,2.834Z" transform="translate(-25.208 -28.078)" fill="#030303"/><path d="M115.274,110.393c0,.363.218.436.509.436h.654c.218,0,.218.073.218.218v.363c0,.145-.073.218-.145.218s-.8-.073-2.034-.073c-1.09,0-1.744.073-1.889.073s-.145-.073-.145-.218v-.363c0-.145.073-.218.291-.218h.581c.218,0,.436-.145.436-.509,0-.581.073-1.235.073-1.744v-2.834c0-.872,0-1.453-.581-1.889a2.284,2.284,0,0,0-1.526-.363,2.609,2.609,0,0,0-1.744.8,2.221,2.221,0,0,0-.509,1.453v4.36c0,.581.073.727.509.727h.509a.193.193,0,0,1,.218.218v.363c0,.145-.073.218-.145.218s-.727-.073-1.816-.073-1.744.073-1.889.073-.145-.073-.145-.218v-.363a.193.193,0,0,1,.218-.218h.581c.291,0,.436-.073.436-.436v-4.941a1.267,1.267,0,0,0-.872-1.235l-.145-.073c-.145-.073-.145-.145-.145-.218v-.145q0-.109.218-.218l1.816-1.017c.145-.073.218-.145.363-.145.073,0,.145.073.145.218l.145,1.308h.073a4.116,4.116,0,0,1,2.906-1.526,3.28,3.28,0,0,1,1.816.509,2.942,2.942,0,0,1,1.163,2.034Z" transform="translate(-29.172 -27.996)" fill="#030303"/><path d="M127.821,96.3c0-.8-.145-1.09-1.308-1.235-.145,0-.145-.073-.145-.145v-.363a.156.156,0,0,1,.145-.145c.8-.145,1.962-.363,2.325-.436.145,0,.363-.073.509-.073.073,0,.145.145.073.363-.073,1.09-.073,4.142-.073,6.83v4.723a4.55,4.55,0,0,0,.218,1.962,1.53,1.53,0,0,0,.945.363c.291,0,.363.073.436.145l.073.145c0,.145,0,.218-.145.218l-2.4.8c-.145.073-.218,0-.291-.145l-.291-.945a4.882,4.882,0,0,1-3.124,1.163,3.035,3.035,0,0,1-2.47-.945,4.1,4.1,0,0,1-1.308-3.415,5.107,5.107,0,0,1,1.453-3.633,4.021,4.021,0,0,1,3.2-1.308,7.666,7.666,0,0,1,2.252.291Zm0,6.685a2.132,2.132,0,0,0-2.47-2.18,2.743,2.743,0,0,0-1.962.727,4.064,4.064,0,0,0-.945,2.834c0,2.4,1.671,4.142,2.906,4.142a2.493,2.493,0,0,0,2.325-1.163,2.581,2.581,0,0,0,.145-.727Z" transform="translate(-33.073 -25.673)" fill="#030303"/><path d="M141.921,109.034c0,1.235.291,1.6.654,1.6a1.291,1.291,0,0,0,.727-.291c.073-.073.145-.145.218-.073l.218.145c.073.073.073.145,0,.363a1.665,1.665,0,0,1-1.671,1.017,1.633,1.633,0,0,1-1.526-1.453h-.073a4.919,4.919,0,0,1-2.107,1.308,7.159,7.159,0,0,1-1.235.145c-.509,0-1.308-.436-1.308-1.744,0-.945.436-1.816,2.107-2.543a12.423,12.423,0,0,0,2.4-1.235v-1.381a2.132,2.132,0,0,0-.291-1.163,1.465,1.465,0,0,0-1.308-.436,2.392,2.392,0,0,0-1.381.436c-.291.291-.073.581-.073.945,0,.727-.291,1.235-1.163,1.235-.363,0-.509-.218-.509-.654a2.8,2.8,0,0,1,1.453-2.034,4.744,4.744,0,0,1,2.616-.727,1.994,1.994,0,0,1,1.671.581,1.914,1.914,0,0,1,.436,1.526l.145,4.432Zm-1.526-2.18c-.727.581-2.834,1.017-2.834,2.761a1.058,1.058,0,0,0,.945,1.163h.218c.654,0,1.744-.727,1.744-1.308v-2.616Z" transform="translate(-37.073 -28.019)" fill="#030303"/><path d="M148.924,108.047c0,1.6.727,1.889,1.09,1.889a2.949,2.949,0,0,0,1.381-.291c.073-.073.218-.073.218,0h0l.073.218c.073.073,0,.145-.073.218a3.563,3.563,0,0,1-2.325.872,2.17,2.17,0,0,1-2.034-1.816c0-.872.073-2.761.073-3.052v-.436c0-.363,0-1.816.073-2.688h-1.308c-.218,0-.291-.073-.291-.291s.145-.218.363-.363a9.4,9.4,0,0,0,2.4-2.688c.073-.145.145-.218.291-.218s.218.145.218.291L149,101.8h2.979a.156.156,0,0,1,.145.145v.073l-.218.727c0,.145-.073.145-.218.145h-2.761c-.073.945-.073,1.962-.073,2.979Z" transform="translate(-39.862 -27.176)" fill="#030303"/><path d="M156.9,103.627c0-.727-.145-1.09-1.163-1.308-.145,0-.218-.073-.218-.145v-.218a.156.156,0,0,1,.145-.145,22.451,22.451,0,0,0,2.325-1.017,1.033,1.033,0,0,1,.436-.145.139.139,0,0,1,.073.218c-.073.363-.073,1.671-.073,3.488v4.142c.073.436.073.581.363.581h.945a.193.193,0,0,1,.218.218v.363a.193.193,0,0,1-.218.218c-.145,0-1.163-.073-2.034-.073-1.235,0-2.034.073-2.252.073a.156.156,0,0,1-.145-.145v-.436c0-.145.073-.145.218-.145h1.017c.218,0,.291-.073.363-.436v-5.086Zm-.945-6.539A1.109,1.109,0,0,1,157.189,96h.073a1.056,1.056,0,0,1,1.09,1.017v.073a1.134,1.134,0,0,1-1.09,1.163h-.073A1.321,1.321,0,0,1,155.954,97.087Z" transform="translate(-42.459 -26.244)" fill="#030303"/><path d="M162.755,110.32a4.726,4.726,0,0,1,.436-6.685l.218-.218a4.514,4.514,0,0,1,2.834-1.017,4.239,4.239,0,0,1,2.979,1.235,4.772,4.772,0,0,1,1.453,3.488,4.846,4.846,0,0,1-4.723,4.65A4.258,4.258,0,0,1,162.755,110.32Zm6.176-3.415c0-2.325-1.744-3.851-2.834-3.851a2.029,2.029,0,0,0-1.6.654,4.356,4.356,0,0,0-1.163,3.342,4.737,4.737,0,0,0,.8,2.979,2.232,2.232,0,0,0,2.107,1.09C167.841,111.119,168.931,109.157,168.931,106.9Z" transform="translate(-44.174 -27.996)" fill="#030303"/><path d="M183.619,110.393a.382.382,0,0,0,.436.436h.654c.218,0,.218.073.218.218v.363c0,.145-.073.218-.145.218s-.8-.073-2.034-.073c-1.09,0-1.744.073-1.889.073s-.145-.073-.145-.218v-.363c0-.145.073-.218.291-.218h.654c.218,0,.436-.145.436-.509,0-.581.073-1.235.073-1.744v-2.834c0-.872,0-1.453-.654-1.889a2.284,2.284,0,0,0-1.526-.363,2.609,2.609,0,0,0-1.744.8,2.221,2.221,0,0,0-.509,1.453v4.36c0,.581.073.727.509.727h.509a.193.193,0,0,1,.218.218v.363c0,.145-.073.218-.145.218s-.727-.073-1.889-.073-1.744.073-1.889.073-.145-.073-.145-.218v-.363a.193.193,0,0,1,.218-.218h.654c.291,0,.436-.073.436-.436v-4.941a1.267,1.267,0,0,0-.872-1.235l-.145-.073c-.145-.073-.145-.145-.145-.218v-.145q0-.109.218-.218l1.816-1.017c.145-.073.218-.145.363-.145.073,0,.145.073.145.218l.145,1.308h.073a4.116,4.116,0,0,1,2.906-1.526,3.28,3.28,0,0,1,1.816.509,2.942,2.942,0,0,1,1.163,2.034Z" transform="translate(-47.818 -27.996)" fill="#030303"/></svg>