<svg xmlns="http://www.w3.org/2000/svg" width="184.047" height="130.933" viewBox="0 0 184.047 130.933"><rect width="184.047" height="130.933" fill="none"/><path d="M85.1,68.1h8.429l3.778,6.83h-8.5Z" transform="translate(-23.267 -18.619)" fill="#030303"/><path d="M173.664,94.929a8.864,8.864,0,1,1,8.864-8.864A8.9,8.9,0,0,1,173.664,94.929Zm0-16.712a7.847,7.847,0,1,0,7.847,7.847h0a7.861,7.861,0,0,0-7.847-7.847Z" transform="translate(-45.057 -21.107)" fill="#030303"/><path d="M174.959,94.784a10.1,10.1,0,0,1-4.36-8.574,10.887,10.887,0,0,1,4.36-9.01l.581.872a9.661,9.661,0,0,0-3.924,8.138,9.064,9.064,0,0,0,3.924,7.7Z" transform="translate(-46.642 -21.107)" fill="#030303"/><path d="M177.381,94.856l-.581-.872a9.1,9.1,0,0,0,3.924-7.775,9.852,9.852,0,0,0-3.924-8.138l.581-.872a10.887,10.887,0,0,1,4.36,9.01A10.412,10.412,0,0,1,177.381,94.856Z" transform="translate(-48.338 -21.107)" fill="#030303"/><rect width="16.784" height="1.017" transform="translate(120.252 64.377)" fill="#030303"/><rect width="1.017" height="16.857" transform="translate(128.099 56.529)" fill="#030303"/><path d="M173.655,73.695a19.567,19.567,0,0,0-2.906-.218c-5.377,0-10.318,3.778-10.318,9.954s3.706,10.318,9.736,10.318a26.674,26.674,0,0,0,3.342-.218,8.155,8.155,0,0,0,1.889-.581v5.159a14.113,14.113,0,0,1-2.4.509,26.106,26.106,0,0,1-3.415.218c-8.5,0-15.186-5.885-15.186-15.477,0-8.864,6.1-15.259,16.13-15.259.872,0,1.744.073,2.616.145a11.382,11.382,0,0,1,2.18.363V74.2A4.913,4.913,0,0,0,173.655,73.695Z" transform="translate(-42.213 -18.619)" fill="#030303"/><path d="M77.179,69.2l-4.5,7.92H64.1l4.069,7.993L64.1,92.524h8.429l4.65,7.92,4.36-7.92h8.5L85.9,85.112,90.04,77.12h-8.5Z" transform="translate(-17.525 -18.919)" fill="#030303"/><path d="M85.1,68.1h8.429l3.778,6.83h-8.5Z" transform="translate(-23.267 -18.619)" fill="#030303"/><path d="M132.595,68.073h6.612v17.22c0,4.8-.218,7.048-1.453,9.3a9.6,9.6,0,0,1-3.633,3.2,10.516,10.516,0,0,1-4.723.872,9.79,9.79,0,0,1-6.467-2.688l2.47-5.449h.073c2.834,3.706,7.193,2.325,7.193-.8V69.6h0L119.516,98.953h-.145l-7.484-14.968-6.394,15.041h-.145L97.5,84.566l4.142-7.92,3.342,6.249,6.83-14.9h.145l7.411,15.4,6.975-15.331Z" transform="translate(-26.657 -18.591)" fill="#030303"/></svg>