<svg xmlns="http://www.w3.org/2000/svg" width="184.047" height="130.933" viewBox="0 0 184.047 130.933"><rect width="184.047" height="130.933" fill="none"/><path d="M64.5,60.3h1.962l1.962,9.155h0l2.47-9.155h1.381l2.4,9.155h.073L76.707,60.3h1.962L75.544,73.161h-1.6l-2.4-9.3h0l-2.325,9.3h-1.6Z" transform="translate(-17.634 -16.486)" fill="#030303"/><path d="M85.6,66.646a19.967,19.967,0,0,1,.145-2.979,3.578,3.578,0,0,1,.436-1.235,5.11,5.11,0,0,1,1.453-1.6,4.662,4.662,0,0,1,4.941,0,3.7,3.7,0,0,1,1.381,1.6,3.577,3.577,0,0,1,.436,1.235c.073,1.017.145,1.962.145,2.979a20.458,20.458,0,0,1-.145,2.979,3.578,3.578,0,0,1-.436,1.235,4.17,4.17,0,0,1-1.381,1.6,4.278,4.278,0,0,1-2.47.727,4.493,4.493,0,0,1-3.924-2.325c-.073-.218-.145-.363-.218-.581a2.122,2.122,0,0,1-.145-.654A13.721,13.721,0,0,1,85.6,66.646Zm1.889,0a14.516,14.516,0,0,0,.145,2.543,1.909,1.909,0,0,0,.509,1.09,2.271,2.271,0,0,0,.8.654,2.132,2.132,0,0,0,1.163.291,3.046,3.046,0,0,0,1.163-.291,2.061,2.061,0,0,0,.727-.654,1.909,1.909,0,0,0,.509-1.09c.073-.872.145-1.744.145-2.543A15.8,15.8,0,0,0,92.5,64.03a2.8,2.8,0,0,0-1.235-1.744A3.42,3.42,0,0,0,90.1,62a2.3,2.3,0,0,0-1.163.291,2.271,2.271,0,0,0-.8.654,1.909,1.909,0,0,0-.509,1.09A15.794,15.794,0,0,0,87.489,66.646Z" transform="translate(-23.403 -16.438)" fill="#030303"/><path d="M100.8,60.3h4.868a4,4,0,0,1,2.543.872,3.787,3.787,0,0,1-1.163,6.321l2.906,5.667H107.7l-2.543-5.522h-2.4v5.522h-1.889Zm1.889,5.595h2.834a1.96,1.96,0,0,0,2.107-1.816V63.86a1.634,1.634,0,0,0-.654-1.453,1.906,1.906,0,0,0-1.381-.363h-2.979v3.851Z" transform="translate(-27.559 -16.486)" fill="#030303"/><path d="M116,60.3h1.889V71.272h6.031v1.889H116Z" transform="translate(-31.715 -16.486)" fill="#030303"/><path d="M128.8,60.3h4.36a4.061,4.061,0,0,1,3.778,2.18A3.525,3.525,0,0,1,137.519,64a17.532,17.532,0,0,1,.073,2.761,19.477,19.477,0,0,1-.145,2.906,2.769,2.769,0,0,1-.218.727,2.945,2.945,0,0,1-.363.654,4.382,4.382,0,0,1-1.526,1.526,4.508,4.508,0,0,1-2.325.654H128.8Zm1.889,10.972h2.252a2.493,2.493,0,0,0,2.325-1.163,2.547,2.547,0,0,0,.436-1.017c.073-.8.073-1.6.073-2.325a20.58,20.58,0,0,0-.073-2.4,2.128,2.128,0,0,0-.509-1.163,2.465,2.465,0,0,0-2.252-1.09h-2.252Z" transform="translate(-35.214 -16.485)" fill="#030303"/><path d="M72.83,88.493H67.889v5.595H66V81.3h1.889v5.522H72.83V81.3h1.889V94.161H72.83Z" transform="translate(-18.045 -22.228)" fill="#030303"/><path d="M81.084,87.621a20.457,20.457,0,0,1,.145-2.979,3.577,3.577,0,0,1,.436-1.235,5.11,5.11,0,0,1,1.453-1.6,4.268,4.268,0,0,1,6.031,1.163c.073.145.218.291.291.436a3.577,3.577,0,0,1,.436,1.235c.073,1.017.145,1.962.145,2.979a20.457,20.457,0,0,1-.145,2.979,3.578,3.578,0,0,1-.436,1.235,5.11,5.11,0,0,1-1.453,1.6,4.563,4.563,0,0,1-4.941,0,4.425,4.425,0,0,1-1.453-1.6c-.073-.218-.145-.363-.218-.581a2.122,2.122,0,0,1-.145-.654A10.145,10.145,0,0,1,81.084,87.621Zm1.889,0a14.516,14.516,0,0,0,.145,2.543,2.155,2.155,0,0,0,.509,1.09,2.271,2.271,0,0,0,.8.654,2.47,2.47,0,0,0,2.325,0,2.061,2.061,0,0,0,.727-.654,1.909,1.909,0,0,0,.509-1.09,15.364,15.364,0,0,0,.145-2.543,15.8,15.8,0,0,0-.145-2.616,2.47,2.47,0,0,0-.509-1.09,2.061,2.061,0,0,0-.727-.654,3.42,3.42,0,0,0-1.163-.291,2.671,2.671,0,0,0-1.962.945,1.909,1.909,0,0,0-.509,1.09A10.552,10.552,0,0,0,82.973,87.621Z" transform="translate(-22.157 -22.155)" fill="#030303"/><path d="M96.3,81.3h1.889V92.344h6.031v1.816H96.3Z" transform="translate(-26.329 -22.228)" fill="#030303"/><path d="M108,87.621a19.965,19.965,0,0,1,.145-2.979,3.577,3.577,0,0,1,.436-1.235,5.11,5.11,0,0,1,1.453-1.6,4.268,4.268,0,0,1,6.031,1.163c.073.145.218.291.291.436a3.577,3.577,0,0,1,.436,1.235c.073,1.017.145,1.962.145,2.979a20.456,20.456,0,0,1-.145,2.979,3.577,3.577,0,0,1-.436,1.235,5.11,5.11,0,0,1-1.453,1.6,4.278,4.278,0,0,1-2.47.727,4.493,4.493,0,0,1-3.924-2.325c-.073-.218-.145-.363-.218-.581a2.121,2.121,0,0,1-.145-.654A20.456,20.456,0,0,1,108,87.621Zm1.889,0a14.517,14.517,0,0,0,.145,2.543,2.155,2.155,0,0,0,.509,1.09,2.271,2.271,0,0,0,.8.654,2.47,2.47,0,0,0,2.325,0,2.061,2.061,0,0,0,.727-.654,1.909,1.909,0,0,0,.509-1.09,15.363,15.363,0,0,0,.145-2.543,15.794,15.794,0,0,0-.145-2.616,2.47,2.47,0,0,0-.509-1.09,2.061,2.061,0,0,0-.727-.654,3.42,3.42,0,0,0-1.163-.291,2.671,2.671,0,0,0-1.962.945,1.909,1.909,0,0,0-.509,1.09,15.8,15.8,0,0,0-.145,2.616Z" transform="translate(-29.528 -22.155)" fill="#030303"/><path d="M130.992,90.473a4.974,4.974,0,0,1-1.526,2.761,4.444,4.444,0,0,1-2.834.945,4.493,4.493,0,0,1-3.924-2.325c-.073-.218-.145-.363-.218-.581a2.122,2.122,0,0,1-.145-.654c-.073-1.017-.145-1.962-.145-2.979a19.966,19.966,0,0,1,.145-2.979,3.578,3.578,0,0,1,.436-1.235,5.11,5.11,0,0,1,1.453-1.6,4.483,4.483,0,0,1,5.377.363,4.5,4.5,0,0,1,1.453,2.688H129.03a3.04,3.04,0,0,0-.8-1.308,2.533,2.533,0,0,0-3.488.436,1.909,1.909,0,0,0-.509,1.09,15.8,15.8,0,0,0-.145,2.616,14.516,14.516,0,0,0,.145,2.543,2.155,2.155,0,0,0,.509,1.09,2.271,2.271,0,0,0,.8.654,2.132,2.132,0,0,0,1.163.291,2.578,2.578,0,0,0,2.4-1.744h1.889Z" transform="translate(-33.41 -22.173)" fill="#030303"/><path d="M140.9,91.254h-4.723l-.945,2.906H133.2L137.7,81.3h1.6l4.5,12.861h-1.962Zm-.509-1.744-1.816-5.595h0l-1.816,5.595Z" transform="translate(-36.417 -22.228)" fill="#030303"/><path d="M149.4,81.3h1.889v8.283a2.72,2.72,0,0,0,.727,2.034,2.306,2.306,0,0,0,1.816.727,2.522,2.522,0,0,0,1.816-.727,2.8,2.8,0,0,0,.727-2.034V81.3h1.889v8.5a4.252,4.252,0,0,1-4.142,4.432h-.291A4.455,4.455,0,0,1,150.708,93a4.388,4.388,0,0,1-1.308-3.2V81.3Z" transform="translate(-40.846 -22.228)" fill="#030303"/><path d="M164.19,91.006a5.392,5.392,0,0,0,3.56,1.308c1.6,0,2.47-.654,2.47-1.816,0-.945-.509-1.526-1.6-1.744l-1.671-.218a4.034,4.034,0,0,1-2.4-1.235,3.612,3.612,0,0,1-.872-2.4,3.362,3.362,0,0,1,1.09-2.688A4.044,4.044,0,0,1,167.75,81.2a6.656,6.656,0,0,1,4,1.381l-1.017,1.6a5.676,5.676,0,0,0-3.052-1.017,2.62,2.62,0,0,0-1.453.436,1.789,1.789,0,0,0-.654,1.381,1.435,1.435,0,0,0,.436,1.017,2.455,2.455,0,0,0,1.381.654c.363.073.8.145,1.381.218a3.662,3.662,0,0,1,2.616,1.308,3.218,3.218,0,0,1,.8,2.4q-.109,3.706-4.36,3.706a7.038,7.038,0,0,1-4.723-1.744Z" transform="translate(-44.592 -22.197)" fill="#030303"/><path d="M180.215,82.944H176.8V81.2h8.719v1.744H182.1V94.061h-1.889Z" transform="translate(-48.338 -22.2)" fill="#030303"/><path d="M66.073,102.2h7.92v1.816h-6.1v3.778h5.159v1.744H67.889v5.522H66V102.2Z" transform="translate(-18.045 -27.942)" fill="#030303"/><path d="M78.3,108.621a19.966,19.966,0,0,1,.145-2.979,3.578,3.578,0,0,1,.436-1.235,5.11,5.11,0,0,1,1.453-1.6,4.268,4.268,0,0,1,6.031,1.163c.073.145.218.291.291.436a3.578,3.578,0,0,1,.436,1.235c.073,1.017.145,1.962.145,2.979a20.457,20.457,0,0,1-.145,2.979,3.578,3.578,0,0,1-.436,1.235,5.11,5.11,0,0,1-1.453,1.6,4.278,4.278,0,0,1-2.47.727,4.493,4.493,0,0,1-3.924-2.325l-.218-.581a2.122,2.122,0,0,1-.145-.654A20.959,20.959,0,0,1,78.3,108.621Zm1.889,0a14.516,14.516,0,0,0,.145,2.543,2.155,2.155,0,0,0,.509,1.09,2.271,2.271,0,0,0,.8.654,2.47,2.47,0,0,0,2.325,0,2.061,2.061,0,0,0,.727-.654,1.909,1.909,0,0,0,.509-1.09,15.364,15.364,0,0,0,.145-2.543,15.8,15.8,0,0,0-.145-2.616,2.47,2.47,0,0,0-.509-1.09,2.061,2.061,0,0,0-.727-.654,3.42,3.42,0,0,0-1.163-.291,2.3,2.3,0,0,0-1.163.291,2.271,2.271,0,0,0-.8.654,1.909,1.909,0,0,0-.509,1.09A15.8,15.8,0,0,0,80.189,108.621Z" transform="translate(-21.407 -27.896)" fill="#030303"/><path d="M93,102.2h4.868a3.624,3.624,0,0,1,2.543.872,3.787,3.787,0,0,1-1.163,6.321l2.906,5.667H99.9l-2.543-5.522h-2.4v5.522H93Zm1.889,5.667h2.834a1.96,1.96,0,0,0,2.107-1.816v-.218a1.772,1.772,0,0,0-.581-1.453,2.392,2.392,0,0,0-1.381-.436H94.889Z" transform="translate(-25.426 -27.938)" fill="#030303"/><path d="M107.8,102.2h1.889v8.283a2.72,2.72,0,0,0,.727,2.034,2.306,2.306,0,0,0,1.816.727,2.5,2.5,0,0,0,2.543-2.761V102.2h1.889v8.5a4.466,4.466,0,0,1-4.5,4.432,4.283,4.283,0,0,1-3.052-1.235,4.508,4.508,0,0,1-1.308-3.2Z" transform="translate(-29.473 -27.942)" fill="#030303"/><path d="M123.245,102.2h1.744l3.56,8.356,3.488-8.356h1.744v12.861h-1.889v-7.993h-.073l-2.616,6.176h-1.6l-2.616-6.176h0v7.993H123.1V102.2Z" transform="translate(-33.656 -27.942)" fill="#030303"/></svg>